<svg width="37" height="37" viewBox="0 0 37 37" version="1.1" xmlns="http://www.w3.org/2000/svg" xmlns:xlink="http://www.w3.org/1999/xlink">
<title>Group 3</title>
<desc>Created using Figma</desc>
<g id="Canvas" transform="translate(-4773 11624)">
<g id="Group 3">
<g id="Group 2.1">
<g id="Ellipse">
<mask id="mask0_outline_ins">
<use xlink:href="#path0_fill" fill="white" transform="translate(4773.45 -11623.4)"/>
</mask>
<g mask="url(#mask0_outline_ins)">
<use xlink:href="#path1_stroke_2x" transform="translate(4773.45 -11623.4)" fill="#EB5757"/>
</g>
</g>
</g>
<g id="!">
<use xlink:href="#path2_fill" transform="translate(4788.29 -11620.5)" fill="#EB5757"/>
</g>
</g>
</g>
<defs>
<path id="path0_fill" d="M 36.3885 18.1942C 36.3885 28.2427 28.2427 36.3885 18.1942 36.3885C 8.14584 36.3885 0 28.2427 0 18.1942C 0 8.14584 8.14584 0 18.1942 0C 28.2427 0 36.3885 8.14584 36.3885 18.1942Z"/>
<path id="path1_stroke_2x" d="M 37.3885 18.1942C 37.388 17.3559 37.3314 16.498 37.2263 15.6886L 35.2431 15.9473C 35.3409 16.6933 35.389 17.4218 35.3885 18.1942L 37.3885 18.1942ZM 35.9316 10.8467C 35.2906 9.3067 34.4221 7.8127 33.4225 6.50855L 31.8366 7.72721C 32.7612 8.92702 33.4984 10.1944 34.0842 11.6128L 35.9316 10.8467ZM 29.8799 2.96602C 28.5758 1.96644 27.0818 1.09787 25.5418 0.456864L 24.7757 2.30432C 26.1941 2.89006 27.4615 3.62725 28.6613 4.55186L 29.8799 2.96602ZM 20.6999 -0.837816C 19.8905 -0.942889 19.0326 -0.999457 18.1942 -1L 18.1942 1C 18.9667 0.999457 19.6952 1.04755 20.4412 1.14538L 20.6999 -0.837816ZM 18.1942 -1C 17.3559 -0.999457 16.498 -0.942889 15.6886 -0.837817L 15.9473 1.14538C 16.6933 1.04755 17.4218 0.999457 18.1942 1L 18.1942 -1ZM 10.8467 0.456863C 9.3067 1.09787 7.8127 1.96644 6.50855 2.96602L 7.72721 4.55186C 8.92702 3.62725 10.1944 2.89006 11.6128 2.30431L 10.8467 0.456863ZM 2.96602 6.50855C 1.96644 7.8127 1.09787 9.3067 0.456864 10.8467L 2.30432 11.6128C 2.89006 10.1944 3.62725 8.92701 4.55186 7.7272L 2.96602 6.50855ZM -0.837816 15.6886C -0.942889 16.498 -0.999457 17.3559 -1 18.1942L 1 18.1942C 0.999457 17.4218 1.04755 16.6933 1.14538 15.9473L -0.837816 15.6886ZM -1 18.1942C -0.999457 19.0326 -0.942889 19.8905 -0.837817 20.6999L 1.14538 20.4412C 1.04755 19.6952 0.999457 18.9667 1 18.1942L -1 18.1942ZM 0.456863 25.5418C 1.09787 27.0818 1.96644 28.5758 2.96602 29.8799L 4.55186 28.6613C 3.62725 27.4615 2.89006 26.1941 2.30431 24.7757L 0.456863 25.5418ZM 6.50855 33.4225C 7.8127 34.4221 9.3067 35.2906 10.8467 35.9316L 11.6128 34.0842C 10.1944 33.4984 8.92701 32.7612 7.7272 31.8366L 6.50855 33.4225ZM 15.6886 37.2263C 16.498 37.3314 17.3559 37.388 18.1942 37.3885L 18.1942 35.3885C 17.4218 35.389 16.6933 35.3409 15.9473 35.2431L 15.6886 37.2263ZM 18.1942 37.3885C 19.0326 37.388 19.8905 37.3314 20.6999 37.2263L 20.4412 35.2431C 19.6952 35.3409 18.9667 35.389 18.1942 35.3885L 18.1942 37.3885ZM 25.5418 35.9316C 27.0818 35.2906 28.5758 34.4221 29.8799 33.4225L 28.6613 31.8366C 27.4615 32.7612 26.1941 33.4984 24.7757 34.0842L 25.5418 35.9316ZM 33.4225 29.8799C 34.4221 28.5758 35.2906 27.0818 35.9316 25.5418L 34.0842 24.7757C 33.4984 26.1941 32.7612 27.4615 31.8366 28.6613L 33.4225 29.8799ZM 37.2263 20.6999C 37.3314 19.8905 37.388 19.0326 37.3885 18.1942L 35.3885 18.1942C 35.389 18.9667 35.3409 19.6952 35.2431 20.4412L 37.2263 20.6999ZM 38.3885 18.1942C 38.3874 17.323 38.3266 16.4004 38.2179 15.5592L 34.2515 16.0766C 34.3457 16.7909 34.3896 17.4547 34.3885 18.1942L 38.3885 18.1942ZM 36.8554 10.4636C 36.1867 8.86284 35.2525 7.25555 34.2154 5.89923L 31.0437 8.33653C 31.9308 9.48417 32.6023 10.6383 33.1605 11.9958L 36.8554 10.4636ZM 30.4893 2.1731C 29.133 1.13603 27.5257 0.201777 25.9249 -0.466861L 24.3927 3.22804C 25.7502 3.78616 26.9043 4.45766 28.052 5.34478L 30.4893 2.1731ZM 20.8293 -1.82942C 19.9881 -1.93811 19.0655 -1.99891 18.1942 -2L 18.1942 2C 18.9338 1.99891 19.5976 2.04278 20.3119 2.13698L 20.8293 -1.82942ZM 18.1942 -2C 17.323 -1.99891 16.4004 -1.93811 15.5592 -1.82942L 16.0766 2.13698C 16.7909 2.04278 17.4547 1.99891 18.1942 2L 18.1942 -2ZM 10.4636 -0.466863C 8.86284 0.201775 7.25555 1.13603 5.89923 2.1731L 8.33653 5.34478C 9.48417 4.45766 10.6383 3.78616 11.9958 3.22804L 10.4636 -0.466863ZM 2.1731 5.89922C 1.13603 7.25554 0.201777 8.86284 -0.466861 10.4636L 3.22804 11.9958C 3.78616 10.6383 4.45766 9.48417 5.34478 8.33653L 2.1731 5.89922ZM -1.82942 15.5592C -1.93811 16.4004 -1.99891 17.323 -2 18.1942L 2 18.1942C 1.99891 17.4547 2.04278 16.7909 2.13698 16.0766L -1.82942 15.5592ZM -2 18.1942C -1.99891 19.0655 -1.93811 19.9881 -1.82942 20.8293L 2.13698 20.3119C 2.04278 19.5976 1.99891 18.9338 2 18.1942L -2 18.1942ZM -0.466863 25.9249C 0.201775 27.5257 1.13603 29.1329 2.1731 30.4893L 5.34478 28.052C 4.45766 26.9043 3.78616 25.7502 3.22804 24.3927L -0.466863 25.9249ZM 5.89922 34.2154C 7.25554 35.2525 8.86284 36.1867 10.4636 36.8554L 11.9958 33.1604C 10.6383 32.6023 9.48417 31.9308 8.33653 31.0437L 5.89922 34.2154ZM 15.5592 38.2179C 16.4004 38.3266 17.323 38.3874 18.1942 38.3885L 18.1942 34.3885C 17.4547 34.3896 16.7909 34.3457 16.0766 34.2515L 15.5592 38.2179ZM 18.1942 38.3885C 19.0655 38.3874 19.9881 38.3266 20.8293 38.2179L 20.3119 34.2515C 19.5976 34.3457 18.9338 34.3896 18.1942 34.3885L 18.1942 38.3885ZM 25.9249 36.8554C 27.5257 36.1867 29.1329 35.2525 30.4893 34.2154L 28.052 31.0437C 26.9043 31.9308 25.7502 32.6023 24.3927 33.1605L 25.9249 36.8554ZM 34.2154 30.4893C 35.2525 29.133 36.1867 27.5257 36.8554 25.9249L 33.1604 24.3927C 32.6023 25.7502 31.9308 26.9043 31.0437 28.052L 34.2154 30.4893ZM 38.2179 20.8293C 38.3266 19.9881 38.3874 19.0655 38.3885 18.1942L 34.3885 18.1942C 34.3896 18.9338 34.3457 19.5976 34.2515 20.3119L 38.2179 20.8293Z"/>
<path id="path2_fill" d="M 4.776 6.648L 4.776 13.512C 4.776 14.24 4.74 14.956 4.668 15.66C 4.596 16.356 4.504 17.096 4.392 17.88L 2.376 17.88C 2.264 17.096 2.172 16.356 2.1 15.66C 2.028 14.956 1.992 14.24 1.992 13.512L 1.992 6.648L 4.776 6.648ZM 1.524 22.368C 1.524 22.12 1.568 21.884 1.656 21.66C 1.752 21.436 1.88 21.244 2.04 21.084C 2.208 20.924 2.404 20.796 2.628 20.7C 2.852 20.604 3.092 20.556 3.348 20.556C 3.596 20.556 3.832 20.604 4.056 20.7C 4.28 20.796 4.472 20.924 4.632 21.084C 4.8 21.244 4.932 21.436 5.028 21.66C 5.124 21.884 5.172 22.12 5.172 22.368C 5.172 22.624 5.124 22.864 5.028 23.088C 4.932 23.304 4.8 23.492 4.632 23.652C 4.472 23.812 4.28 23.936 4.056 24.024C 3.832 24.12 3.596 24.168 3.348 24.168C 3.092 24.168 2.852 24.12 2.628 24.024C 2.404 23.936 2.208 23.812 2.04 23.652C 1.88 23.492 1.752 23.304 1.656 23.088C 1.568 22.864 1.524 22.624 1.524 22.368Z"/>
</defs>
</svg>
