<svg width="150" height="120" viewBox="0 0 150 120" version="1.1" xmlns="http://www.w3.org/2000/svg" xmlns:xlink="http://www.w3.org/1999/xlink">
<title>Group 8</title>
<desc>Created using Figma</desc>
<g id="Canvas" transform="translate(-1461 11339)">
<g id="Group 8">
<g id="Subtract">
<use xlink:href="#path0_fill" transform="translate(1461.5 -11338.2)" fill="url(#paint0_linear)"/>
</g>
<g id="Rectangle 19">
<use xlink:href="#path1_fill" transform="translate(1470.79 -11313.6)" fill="#ADADAD"/>
</g>
<g id="Rectangle 17">
<use xlink:href="#path2_fill" transform="translate(1470.79 -11313.6)" fill="#E0E0E0"/>
</g>
<g id="Rectangle 19">
<use xlink:href="#path3_fill" transform="translate(1470.79 -11313.6)" fill="#C4C4C4"/>
</g>
<g id="Rectangle 17.1">
<use xlink:href="#path4_fill" transform="translate(1473.88 -11313.6)" fill="#FFFFFF"/>
</g>
<g id="Rectangle 17.2">
<use xlink:href="#path5_fill" transform="translate(1473.88 -11313.6)" fill="#1858AD"/>
</g>
<g id="Rectangle 18">
<use xlink:href="#path6_fill" transform="translate(1484.72 -11293.6)" fill="#DAF6FF"/>
</g>
<g id="Rectangle 18.1">
<use xlink:href="#path7_fill" transform="translate(1499.42 -11293.6)" fill="#B2ECFF"/>
</g>
<g id="Rectangle 18.2">
<use xlink:href="#path7_fill" transform="translate(1529.6 -11293.6)" fill="#B2ECFF"/>
</g>
<g id="Rectangle 18.3">
<use xlink:href="#path7_fill" transform="translate(1559.79 -11293.6)" fill="#B2ECFF"/>
</g>
<g id="Rectangle 20">
<use xlink:href="#path8_fill" transform="translate(1484.72 -11293.6)" fill="#9FE6FD"/>
</g>
</g>
</g>
<defs>
<linearGradient id="paint0_linear" x1="0" y1="0" x2="1" y2="0" gradientUnits="userSpaceOnUse" gradientTransform="matrix(8.71939e-15 118.59 -142.398 7.26153e-15 142.398 -7.26153e-15)">
<stop offset="0" stop-color="#A5CFE7"/>
<stop offset="1" stop-color="#C3C8CB" stop-opacity="0"/>
</linearGradient>
<path id="path0_fill" fill-rule="evenodd" d="M 0 0L 142.398 0L 142.398 118.59L 0 118.59L 0 0ZM 53.9673 10.7812C 53.9673 13.7578 51.5464 16.1719 48.5601 16.1719C 45.5732 16.1719 43.1523 13.7578 43.1523 10.7812C 43.1523 7.80371 45.5732 5.39062 48.5601 5.39062C 51.5464 5.39062 53.9673 7.80371 53.9673 10.7812ZM 94.103 16.1719C 97.0894 16.1719 99.5103 13.7578 99.5103 10.7812C 99.5103 7.80371 97.0894 5.39062 94.103 5.39062C 91.1162 5.39062 88.6953 7.80371 88.6953 10.7812C 88.6953 13.7578 91.1162 16.1719 94.103 16.1719Z"/>
<path id="path1_fill" d="M 0 0L 123.825 0L 123.825 87.7875L 0 87.7875L 0 0Z"/>
<path id="path2_fill" d="M 0 0L 117.384 0C 117.384 20.4067 124.861 47.7518 132.338 81.627L 14.9534 81.627C 7.85054 51.425 2.91984 31.8773 0 0Z"/>
<path id="path3_fill" d="M 0 0L 78.9383 0L 78.9383 14.6313L 1.54781 14.6313L 0 0Z"/>
<path id="path4_fill" d="M 0 0L 121.503 0C 121.503 19.2516 129.242 45.0489 136.981 77.0066L 15.4781 77.0066C 8.126 48.5142 3.02229 30.0729 0 0Z"/>
<path id="path5_fill" d="M 121.503 0L 0 0C 0.392148 3.90202 0.819337 7.60822 1.28193 11.166L 122.226 11.166C 121.76 7.22847 121.503 3.50571 121.503 0Z"/>
<path id="path6_fill" d="M 0 0L 106.025 0L 116.086 46.204L 10.0608 46.204L 0 0Z"/>
<path id="path7_fill" d="M 0 0L 10.0608 46.204L 25.5389 46.204L 15.4781 0L 0 0Z"/>
<path id="path8_fill" d="M 0 0L 106.025 0L 108.347 9.24079L 2.32171 9.24079L 0 0Z"/>
</defs>
</svg>
