<svg width="277" height="154" viewBox="0 0 277 154" version="1.1" xmlns="http://www.w3.org/2000/svg" xmlns:xlink="http://www.w3.org/1999/xlink">
<title>Group</title>
<desc>Created using Figma</desc>
<g id="Canvas" transform="translate(202 11300)">
<g id="Group">
<g id="Rectangle 12.5">
<use xlink:href="#path0_fill" transform="translate(-201.092 -11299.2)" fill="url(#paint0_linear)"/>
</g>
<g id="Rectangle 15">
<use xlink:href="#path1_fill" transform="translate(-183.538 -11289)" fill="#B7CDEC"/>
</g>
<g id="Rectangle 13.2">
<use xlink:href="#path2_fill" transform="translate(-174.299 -11275.1)" fill="url(#paint2_linear)"/>
</g>
<g id="Mask Group">
<mask id="mask0_alpha" mask-type="alpha">
<g id="Rectangle 13.1">
<use xlink:href="#path3_fill" transform="translate(-174.299 -11271.4)" fill="#56CCF2"/>
</g>
</mask>
<g id="Vector 2.1" mask="url(#mask0_alpha)">
<use xlink:href="#path4_fill" transform="matrix(0.856997 -0.515321 0.514214 0.857662 -143.456 -11243.3)" fill="#219653"/>
</g>
<g id="Ellipse 5" mask="url(#mask0_alpha)">
<use xlink:href="#path5_fill" transform="translate(-153.973 -11246.9)" fill="#219653"/>
</g>
<g id="Ellipse 6" mask="url(#mask0_alpha)">
<use xlink:href="#path6_fill" transform="translate(-209.407 -11219)" fill="#219653"/>
</g>
<g id="Vector 2" mask="url(#mask0_alpha)">
<use xlink:href="#path7_fill" transform="matrix(-0.980268 -0.197674 -0.197118 0.98038 -109.615 -11247.1)" fill="#219653"/>
</g>
<g id="Ellipse 7" mask="url(#mask0_alpha)">
<use xlink:href="#path8_fill" transform="translate(-159.516 -11258.9)" fill="#F9F9F9"/>
</g>
<g id="Ellipse 7.1" mask="url(#mask0_alpha)">
<use xlink:href="#path9_fill" transform="matrix(0.805243 -0.592945 0.59182 0.80607 -126.616 -11261.9)" fill="#F9F9F9"/>
</g>
<g id="Ellipse 8" mask="url(#mask0_alpha)">
<use xlink:href="#path10_fill" transform="matrix(0.805243 -0.592945 0.59182 0.80607 -121.099 -11259.1)" fill="#828282"/>
</g>
<g id="Ellipse 8.1" mask="url(#mask0_alpha)">
<use xlink:href="#path11_fill" transform="translate(-153.973 -11252.4)" fill="#828282"/>
</g>
<g id="Vector 3" mask="url(#mask0_alpha)">
<use xlink:href="#path12_fill" transform="translate(-167.131 -11236.3)" fill="#219653"/>
<use xlink:href="#path13_fill" transform="translate(-167.131 -11236.3)" fill="#219653"/>
</g>
<g id="Ellipse 9" mask="url(#mask0_alpha)">
<use xlink:href="#path14_fill" transform="matrix(0.992416 -0.122925 0.122571 0.99246 -138.6 -11225.9)" fill="#EB5757"/>
</g>
<g id="Ellipse 10" mask="url(#mask0_alpha)">
<use xlink:href="#path15_fill" transform="matrix(1 0 0 -1 -129.027 -11243.2)" fill="#166839"/>
</g>
<g id="Ellipse 10.3" mask="url(#mask0_alpha)">
<use xlink:href="#path15_fill" transform="matrix(1 0 0 -1 -130.875 -11240.4)" fill="#166839"/>
</g>
<g id="Ellipse 10.1" mask="url(#mask0_alpha)">
<use xlink:href="#path16_fill" transform="translate(-123.484 -11245.9)" fill="#166839"/>
</g>
<g id="Ellipse 10.2" mask="url(#mask0_alpha)">
<use xlink:href="#path17_fill" transform="matrix(0.888542 -0.458795 0.457736 0.889088 -135.881 -11241.4)" fill="#166839"/>
</g>
</g>
<g id="Rectangle 14.4">
<use xlink:href="#path18_fill" transform="translate(-79.1367 -11222.4)" fill="#C4C4C4"/>
</g>
<g id="Rectangle 14.3">
<use xlink:href="#path19_fill" transform="translate(-13.5389 -11222.4)" fill="#C4C4C4"/>
</g>
</g>
</g>
<defs>
<linearGradient id="paint0_linear" x1="0" y1="0" x2="1" y2="0" gradientUnits="userSpaceOnUse" gradientTransform="matrix(1.68587e-14 152.668 -275.324 9.34821e-15 275.324 -9.34821e-15)">
<stop offset="0" stop-color="#F2F2F2"/>
<stop offset="1" stop-color="#F2F2F2" stop-opacity="0"/>
</linearGradient>
<linearGradient id="paint2_linear" x1="0" y1="0" x2="1" y2="0" gradientUnits="userSpaceOnUse" gradientTransform="matrix(5.60072e-15 79.5723 -91.4667 4.8724e-15 91.4667 -4.8724e-15)">
<stop offset="0" stop-color="#D6F3FC"/>
<stop offset="1" stop-color="#B2D1DB"/>
</linearGradient>
<path id="path0_fill" d="M 0 0L 275.324 0L 275.324 152.668L 0 152.668L 0 0Z"/>
<path id="path1_fill" d="M 0 0L 247.607 0L 247.607 62.9176L 0 62.9176L 0 0Z"/>
<path id="path2_fill" d="M 0 0L 91.4667 0L 91.4667 79.5723L 0 79.5723L 0 0Z"/>
<path id="path3_fill" d="M 0 0L 86.8471 0L 86.8471 75.8712L 0 75.8712L 0 0Z"/>
<path id="path4_fill" d="M 6.94055 24.0474C -5.62945 44.0253 1.70305 55.1857 6.94055 58.2687C 18.0317 58.2687 13.4018 34.2213 18.0317 24.0474L 30.5007 0C 26.6496 2.1581 19.5105 4.06956 6.94055 24.0474Z"/>
<path id="path5_fill" d="M 50.7576 52.9112C 50.7576 74.7898 39.6328 92.5259 25.9095 92.5259C 12.1863 92.5259 1.06143 74.7898 1.06143 52.9112C 1.06143 31.0326 -7.83946 12.3757 25.9095 1.31988C 53.215 -7.62509 50.7576 31.0326 50.7576 52.9112Z"/>
<path id="path6_fill" d="M 103.477 39.6866C 103.477 57.5718 80.3132 72.0707 51.7387 72.0707C 23.1642 72.0707 0 57.5718 0 39.6866C 0 21.8013 15.2444 24.8835 51.7387 7.3025C 85.9232 -15.828 103.477 21.8013 103.477 39.6866Z"/>
<path id="path7_fill" d="M 9.56113 31.457C -7.755 51.4415 2.34608 62.6056 9.56113 65.6897C 24.8401 65.6897 19.7353 38.8587 24.8401 31.457L 47.1219 0C 41.8167 2.15882 26.8773 11.4726 9.56113 31.457Z"/>
<path id="path8_fill" d="M 12.9347 6.47681C 12.9347 10.0539 10.0392 12.9536 6.46734 12.9536C 2.89553 12.9536 0 10.0539 0 6.47681C 0 2.89977 2.89553 0 6.46734 0C 10.0392 0 12.9347 2.89977 12.9347 6.47681Z"/>
<path id="path9_fill" d="M 12.9413 6.47349C 12.9413 10.0487 10.0443 12.947 6.47067 12.947C 2.89702 12.947 0 10.0487 0 6.47349C 0 2.89828 2.89702 0 6.47067 0C 10.0443 0 12.9413 2.89828 12.9413 6.47349Z"/>
<path id="path10_fill" d="M 4.6219 2.31196C 4.6219 3.58882 3.58726 4.62392 2.31095 4.62392C 1.03465 4.62392 0 3.58882 0 2.31196C 0 1.0351 1.03465 0 2.31095 0C 3.58726 0 4.6219 1.0351 4.6219 2.31196Z"/>
<path id="path11_fill" d="M 4.61953 2.31315C 4.61953 3.59066 3.58541 4.6263 2.30976 4.6263C 1.03412 4.6263 0 3.59066 0 2.31315C 0 1.03563 1.03412 0 2.30976 0C 3.58541 0 4.61953 1.03563 4.61953 2.31315Z"/>
<path id="path12_fill" d="M 58.8914 16.2682L 75.0597 2.38927C 76.4456 0.230328 79.3096 -2.42208 79.6792 4.23978C 80.0487 10.9016 76.7535 17.8103 75.0597 20.4318C 72.134 23.8244 64.8044 29.962 58.8914 27.3713C 52.9784 24.7805 56.4276 18.8897 58.8914 16.2682Z"/>
<path id="path13_fill" d="M 0.223283 20.4318C 2.995 15.3431 7.61453 16.2682 17.7775 16.2682L 20.5492 27.3713C 12.85 26.7544 -1.99409 24.5028 0.223283 20.4318Z"/>
<path id="path14_fill" d="M 24.946 0.503265C 24.946 2.03625 19.3617 6.97994 12.473 6.97994C 5.58435 6.97994 0 2.03625 0 0.503265C 0 -1.02972 5.58435 1.4285 12.473 1.4285C 19.3617 1.4285 24.946 -1.02972 24.946 0.503265Z"/>
<path id="path15_fill" d="M 1.84781 0.46263C 1.84781 0.718133 1.43416 0.925259 0.923906 0.925259C 0.413647 0.925259 0 0.718133 0 0.46263C 0 0.207126 0.413647 0 0.923906 0C 1.43416 0 1.84781 0.207126 1.84781 0.46263Z"/>
<path id="path16_fill" d="M 2.77172 0.925259C 2.77172 1.43627 2.15125 1.85052 1.38586 1.85052C 0.62047 1.85052 0 1.43627 0 0.925259C 0 0.414253 0.62047 0 1.38586 0C 2.15125 0 2.77172 0.414253 2.77172 0.925259Z"/>
<path id="path17_fill" d="M 3.19912 0.979192C 3.19912 1.51998 2.48297 1.95838 1.59956 1.95838C 0.716147 1.95838 0 1.51998 0 0.979192C 0 0.438399 0.716147 0 1.59956 0C 2.48297 0 3.19912 0.438399 3.19912 0.979192Z"/>
<path id="path18_fill" d="M 0 0L 61.9017 0L 61.9017 11.1031L 0 11.1031L 0 0Z"/>
<path id="path19_fill" d="M 0 0L 77.6081 0L 77.6081 11.1031L 0 11.1031L 0 0Z"/>
</defs>
</svg>
