<svg width="313" height="300" viewBox="0 0 313 300" version="1.1" xmlns="http://www.w3.org/2000/svg" xmlns:xlink="http://www.w3.org/1999/xlink">
<title>alien</title>
<desc>Created using Figma</desc>
<g id="Canvas" transform="translate(-4305 189)">
<g id="alien">
<g id="Ellipse 4">
<use xlink:href="#path0_fill" transform="translate(4305.22 29.262)" fill="url(#paint0_linear)"/>
</g>
<g id="Union">
<use xlink:href="#path1_fill" transform="translate(4319.79 -134.196)" fill="url(#paint1_linear)"/>
</g>
<g id="Ellipse 2">
<use xlink:href="#path2_fill" transform="matrix(0.879554 -0.4758 0.4758 0.879554 4434.56 -37.8108)" fill="#B64040"/>
</g>
<g id="Rectangle">
<use xlink:href="#path3_fill" transform="translate(4453.92 -69.5161)" fill="#E0E0E0"/>
</g>
<g id="Polygon">
<use xlink:href="#path4_fill" transform="matrix(1 0 0 -1 4447.43 42.0521)" fill="#C4C4C4"/>
</g>
<g id="Vector">
<use xlink:href="#path5_stroke" transform="matrix(0.988799 0.149253 -0.149253 0.988799 4469.23 31.4297)" fill="#BDBDBD"/>
</g>
<g id="Vector">
<use xlink:href="#path5_stroke" transform="matrix(-0.988799 0.149253 0.149253 0.988799 4589.86 31.4297)" fill="#BDBDBD"/>
</g>
<g id="Group">
<g id="Mask Group">
<mask id="mask0_alpha" mask-type="alpha">
<g id="Polygon">
<use xlink:href="#path4_fill" transform="matrix(1 0 0 -1 4447.43 42.0521)" fill="#FFFFFF"/>
</g>
</mask>
<g id="Rectangle" mask="url(#mask0_alpha)">
<use xlink:href="#path6_fill" transform="translate(4481.12 -78.3037)" fill="#FFFFFF"/>
</g>
</g>
<g id="Rectangle">
<use xlink:href="#path7_fill" transform="translate(4481.12 -47.3545)" fill="#FFFFFF"/>
</g>
</g>
<g id="Rectangle">
<use xlink:href="#path8_fill" transform="translate(4488.99 -36.6828)" fill="#C4C4C4"/>
</g>
<g id="Rectangle">
<use xlink:href="#path8_fill" transform="translate(4488.99 3.89801)" fill="#C4C4C4"/>
</g>
<g id="Rectangle">
<use xlink:href="#path9_fill" transform="translate(4488.99 -22.3248)" fill="#C4C4C4"/>
</g>
<g id="Rectangle">
<use xlink:href="#path10_fill" transform="translate(4555.25 -9.21338)" fill="#C4C4C4"/>
</g>
<g id="Rectangle">
<use xlink:href="#path11_fill" transform="translate(4544.9 17.0094)" fill="#C4C4C4"/>
</g>
<g id="Rectangle">
<use xlink:href="#path12_fill" transform="translate(4493.55 17.0094)" fill="#C4C4C4"/>
</g>
<g id="Rectangle">
<use xlink:href="#path13_fill" transform="translate(4524.53 -22.3248)" fill="#C4C4C4"/>
</g>
<g id="Rectangle">
<use xlink:href="#path14_fill" transform="translate(4489.3 -9.21338)" fill="#C4C4C4"/>
</g>
<g id="Ellipse">
<use xlink:href="#path15_fill" transform="translate(4374.62 -124.984)" fill="#F9F9F9"/>
</g>
<g id="Ellipse">
<use xlink:href="#path16_fill" transform="translate(4381.13 -117.88)" fill="#4F4F4F"/>
</g>
<g id="Ellipse">
<use xlink:href="#path15_fill" transform="translate(4442.35 -148.39)" fill="#F9F9F9"/>
</g>
<g id="Ellipse">
<use xlink:href="#path16_fill" transform="translate(4448.86 -141.286)" fill="#4F4F4F"/>
</g>
<g id="Ellipse 3">
<use xlink:href="#path17_fill" transform="matrix(0.815256 -0.579101 0.579101 0.815256 4420.27 -87.001)" fill="#116635"/>
</g>
<g id="Ellipse 3.2">
<use xlink:href="#path18_fill" transform="matrix(0.815256 -0.579101 0.579101 0.815256 4429.89 -82.6135)" fill="#116635"/>
</g>
<g id="Ellipse 3.1">
<use xlink:href="#path19_fill" transform="matrix(0.987867 -0.155304 0.155304 0.987867 4435.83 -93.6704)" fill="#116635"/>
</g>
<g id="Ellipse 3.3">
<use xlink:href="#path20_fill" transform="matrix(0.962813 0.270169 -0.270169 0.962813 4418.23 -80.2693)" fill="#116635"/>
</g>
<g id="Vector">
<use xlink:href="#path21_fill" transform="matrix(0.786473 -0.617625 0.617625 0.786473 4372.1 -149.955)" fill="#EB5757"/>
</g>
<g id="Vector">
<use xlink:href="#path22_fill" transform="matrix(0.993077 0.117466 -0.117466 0.993077 4404.47 -179.195)" fill="#EB5757"/>
</g>
<g id="Vector">
<use xlink:href="#path23_fill" transform="matrix(0.86479 -0.502134 0.502134 0.86479 4381.22 -183.572)" fill="#EB5757"/>
</g>
<g id="Ellipse 2">
<use xlink:href="#path24_fill" transform="translate(4428.64 24.4805)" fill="url(#paint29_linear)"/>
</g>
</g>
</g>
<defs>
<linearGradient id="paint0_linear" x1="0" y1="0" x2="1" y2="0" gradientUnits="userSpaceOnUse" gradientTransform="matrix(1.108e-14 47.1929 -180.95 2.09509e-14 246.415 34.1472)">
<stop offset="0" stop-color="#853B1F"/>
<stop offset="1" stop-color="#FF7F50"/>
</linearGradient>
<linearGradient id="paint1_linear" x1="0" y1="0" x2="1" y2="0" gradientUnits="userSpaceOnUse" gradientTransform="matrix(189.77 -120.026 108.046 170.831 -48.1171 92.8352)">
<stop offset="0" stop-color="#219653"/>
<stop offset="1" stop-color="#1D7B45"/>
</linearGradient>
<linearGradient id="paint29_linear" x1="0" y1="0" x2="1" y2="0" gradientUnits="userSpaceOnUse" gradientTransform="matrix(42.2768 -32.3698 82.7167 108.033 -41.3583 -42.9712)">
<stop offset="0" stop-color="#1F8A4D"/>
<stop offset="1" stop-color="#219653"/>
</linearGradient>
<path id="path0_fill" d="M 311.879 40.6701C 311.879 63.1315 242.063 81.3401 155.94 81.3401C 69.8166 81.3401 0 63.1315 0 40.6701C 0 18.2086 69.8166 0 155.94 0C 242.063 0 311.879 18.2086 311.879 40.6701Z"/>
<path id="path1_fill" fill-rule="evenodd" d="M 129.531 35.6016C 151.422 38.5191 172.494 56.0439 182.149 81.9769C 195.132 116.85 176.631 124.122 148.129 134.733C 147.741 134.878 147.347 135.025 146.947 135.175C 163.571 139.048 174.379 146.896 174.379 161.872C 174.379 186.721 144.62 206.866 107.91 206.866C 104.09 206.866 99.8975 206.904 95.4502 206.945C 57.1548 207.294 0 207.816 0 185.552C 0 169.006 32.2749 158.503 64.209 148.11C 68.3521 146.762 72.4893 145.416 76.5498 144.058C 74.2388 139.309 74.6289 131.763 78.9336 120.403C 74.3911 108.201 72.978 95.7548 74.2817 84.274C 70.5845 79.6994 67.0488 73.962 63.9697 66.8217C 54.4541 37.232 64.7651 19.5106 69.5742 16.3524C 71.3057 15.2152 71.3188 16.9083 71.3477 20.6388C 71.3984 27.2687 71.499 40.3341 81.3838 55.3849C 81.9658 56.2711 82.5469 57.1489 83.126 58.0178C 88.8003 48.8931 96.9131 41.8142 107.034 38.0464C 108.96 37.3292 110.91 36.7503 112.875 36.3051C 111.93 12.9911 128.464 0.768274 132.656 0.0343871C 134.306 -0.254355 133.82 1.2747 132.749 4.64387C 131.014 10.1021 127.744 20.3897 129.531 35.6016Z"/>
<path id="path2_fill" d="M 55.9793 1.46557C 55.9793 6.14988 43.4479 21.7874 27.9897 21.7874C 12.5314 21.7874 0 6.14988 0 1.46557C 0 -3.21874 12.5314 4.82404 27.9897 4.82404C 43.4479 4.82404 55.9793 -3.21874 55.9793 1.46557Z"/>
<path id="path3_fill" d="M 0 61.2209C 0 58.0845 1.47147 55.1298 3.97457 53.24L 68.5468 4.48893C 72.0749 1.82528 76.9333 1.79422 80.4952 4.41254L 146.923 53.2437C 149.486 55.128 151 58.1195 151 61.3009L 151 135.722C 151 141.245 146.523 145.722 141 145.722L 10 145.722C 4.47715 145.722 0 141.245 0 135.722L 0 61.2209Z"/>
<path id="path4_fill" d="M 81.9901 0L 152.996 49.5061L 10.9846 49.5061L 81.9901 0Z"/>
<path id="path5_stroke" d="M 2.30079 40.5928L 45.8105 2.63749L 41.2089 -2.63749L -2.30079 35.3178L 2.30079 40.5928Z"/>
<path id="path6_fill" d="M 0 0L 96.8329 0L 96.8329 137.334L 0 137.334L 0 0Z"/>
<path id="path7_fill" d="M 0 0L 96.8329 0L 96.8329 43.5135L 0 43.5135L 0 0Z"/>
<path id="path8_fill" d="M 0 0L 81.462 0L 81.462 7.35439L 0 7.35439L 0 0Z"/>
<path id="path9_fill" d="M 0 0L 31.3583 0L 31.3583 7.35439L 0 7.35439L 0 0Z"/>
<path id="path10_fill" d="M 0 0L 15.2028 0L 15.2028 7.35439L 0 7.35439L 0 0Z"/>
<path id="path11_fill" d="M 0 0L 20.5751 0L 9.83042 7.35439L 0 7.35439L 0 0Z"/>
<path id="path12_fill" d="M 0 0L 45.914 0L 45.914 7.35439L 10.476 7.35439L 0 0Z"/>
<path id="path13_fill" d="M 0 0L 45.9157 0L 45.9157 7.35439L 0 7.35439L 0 0Z"/>
<path id="path14_fill" d="M 0 0L 63.2065 0L 63.2065 7.35439L 0 7.35439L 0 0Z"/>
<path id="path15_fill" d="M 23.1306 11.5653C 23.1306 17.9526 17.9526 23.1306 11.5653 23.1306C 5.17796 23.1306 0 17.9526 0 11.5653C 0 5.17796 5.17796 0 11.5653 0C 17.9526 0 23.1306 5.17796 23.1306 11.5653Z"/>
<path id="path16_fill" d="M 15.4999 7.74995C 15.4999 12.0301 12.0301 15.4999 7.74995 15.4999C 3.46977 15.4999 0 12.0301 0 7.74995C 0 3.46977 3.46977 0 7.74995 0C 12.0301 0 15.4999 3.46977 15.4999 7.74995Z"/>
<path id="path17_fill" d="M 7.27832 2.69089C 7.27832 4.17702 5.64901 5.38177 3.63916 5.38177C 1.62931 5.38177 0 4.17702 0 2.69089C 0 1.20475 1.62931 0 3.63916 0C 5.64901 0 7.27832 1.20475 7.27832 2.69089Z"/>
<path id="path18_fill" d="M 4.83745 1.7181C 4.83745 2.66698 3.75455 3.43619 2.41873 3.43619C 1.0829 3.43619 0 2.66698 0 1.7181C 0 0.769218 1.0829 0 2.41873 0C 3.75455 0 4.83745 0.769218 4.83745 1.7181Z"/>
<path id="path19_fill" d="M 8.98416 3.19086C 8.98416 4.95312 6.97299 6.38171 4.49208 6.38171C 2.01117 6.38171 0 4.95312 0 3.19086C 0 1.4286 2.01117 0 4.49208 0C 6.97299 0 8.98416 1.4286 8.98416 3.19086Z"/>
<path id="path20_fill" d="M 6.85997 2.1698C 6.85997 3.36814 5.32432 4.33959 3.42999 4.33959C 1.53566 4.33959 0 3.36814 0 2.1698C 0 0.971451 1.53566 0 3.42999 0C 5.32432 0 6.85997 0.971451 6.85997 2.1698Z"/>
<path id="path21_fill" d="M 0.265139 2.05454C 1.96925 -2.20569 6.91768 1.01136 9.78407 4.03178C 12.6505 1.01136 17.5989 -2.20569 19.303 2.05454C 21.0106 6.3236 14.0754 14.2764 9.78407 18.0468C 5.49275 14.2764 -1.44251 6.3236 0.265139 2.05454Z"/>
<path id="path22_fill" d="M 0.244186 1.89217C 1.81363 -2.03138 6.371 0.931436 9.01087 3.71316C 11.6507 0.931436 16.2081 -2.03138 17.7776 1.89217C 19.3503 5.82387 12.9631 13.1482 9.01087 16.6206C 5.05868 13.1482 -1.32851 5.82387 0.244186 1.89217Z"/>
<path id="path23_fill" d="M 0.155266 1.20314C 1.1532 -1.29166 4.05101 0.592255 5.72958 2.36102C 7.40815 0.592255 10.306 -1.29166 11.3039 1.20314C 12.3039 3.70312 8.24258 8.36028 5.72958 10.5682C 3.21657 8.36028 -0.844735 3.70312 0.155266 1.20314Z"/>
<path id="path24_fill" d="M 56.4487 4.34956C 56.4487 14.1475 43.8122 22.0903 28.2244 22.0903C 12.6365 22.0903 0 14.1475 0 4.34956C 0 -5.44835 12.6365 4.36912 28.2244 4.36912C 43.8122 4.36912 56.4487 -5.44835 56.4487 4.34956Z"/>
</defs>
</svg>
