<?xml version="1.0" standalone="no"?>
<!DOCTYPE svg PUBLIC "-//W3C//DTD SVG 20010904//EN"
 "http://www.w3.org/TR/2001/REC-SVG-20010904/DTD/svg10.dtd">
<svg version="1.0" xmlns="http://www.w3.org/2000/svg"
 width="256.000000pt" height="256.000000pt" viewBox="0 0 256.000000 256.000000"
 preserveAspectRatio="xMidYMid meet">
<metadata>
Created by potrace 1.11, written by Peter Selinger 2001-2013
</metadata>
<g transform="translate(0.000000,256.000000) scale(0.100000,-0.100000)"
fill="#000000" stroke="none">
<path d="M1540 2340 c-116 -33 -240 -173 -359 -409 -23 -46 -47 -91 -51 -100
-15 -27 -90 -192 -122 -268 -27 -64 -34 -73 -57 -74 -88 -3 -142 -23 -162 -60
-6 -12 -11 -42 -12 -66 -1 -59 31 -90 99 -95 13 -1 7 -24 -23 -108 -7 -19 -7
-18 -37 -120 -14 -47 -30 -110 -36 -140 -5 -30 -12 -64 -14 -75 -14 -77 -18
-118 -18 -197 1 -48 3 -97 7 -107 3 -11 8 -30 10 -42 18 -94 113 -201 211
-239 273 -105 706 152 906 538 33 64 39 84 35 117 -7 53 -53 95 -103 95 -56 0
-87 -23 -124 -92 -128 -241 -384 -448 -560 -452 -110 -2 -155 50 -154 179 0
95 6 133 34 251 28 120 56 214 91 304 l29 75 172 1 c227 2 377 10 409 23 37
14 69 62 69 105 0 27 -8 45 -33 72 -37 41 -29 40 -290 34 -70 -1 -130 0 -133
3 -3 2 59 110 137 238 78 129 151 250 162 269 12 19 24 37 27 40 4 3 19 32 35
65 47 100 36 174 -31 216 -37 23 -78 29 -114 19z"/>
</g>
</svg>
