<svg width="655" height="124" viewBox="0 0 655 124" version="1.1" xmlns="http://www.w3.org/2000/svg" xmlns:xlink="http://www.w3.org/1999/xlink">
<title>Group</title>
<desc>Created using Figma</desc>
<g id="Canvas" transform="translate(132 -427)">
<g id="Group">
<g id="PLUT">
<use xlink:href="#path0_fill" transform="translate(-142 428.196)" fill="#FF7F50"/>
</g>
<g id="11 - Image Only">
<g id="Subtract">
<use xlink:href="#path1_fill" transform="translate(374.938 427.911)" fill="#FF7F50"/>
</g>
<g id="Group">
<g id="Vector">
<use xlink:href="#path2_fill" transform="matrix(-0.217526 -0.976055 0.975064 -0.221923 514.358 476.229)" fill="#FF7F50"/>
</g>
<g id="Subtract">
<use xlink:href="#path3_fill" transform="matrix(-0.217526 -0.976055 0.975064 -0.221923 501.395 481.483)" fill="#FF7F50"/>
</g>
</g>
<g id="Rectangle">
<use xlink:href="#path4_fill" transform="matrix(0.181359 0.983417 -0.982768 0.184844 515.01 479.074)" fill="#FF7F50"/>
</g>
<g id="Rectangle">
<use xlink:href="#path5_fill" transform="matrix(-0.20237 -0.979309 -0.97847 0.206389 511.592 461.588)" fill="#FF7F50"/>
</g>
<g id="Ellipse 2">
<use xlink:href="#path6_fill" transform="matrix(0.94671 -0.322086 0.316315 0.948654 372.447 489.513)" fill="#FF7F50"/>
</g>
</g>
</g>
</g>
<defs>
<path id="path0_fill" d="M 10.4062 21.7344L 49.0312 21.7344C 54.6562 21.7344 59.5312 22.3438 63.6562 23.5625C 67.7812 24.7812 71.2031 26.5469 73.9219 28.8594C 76.6406 31.1406 78.6562 33.9375 79.9688 37.25C 81.3125 40.5625 81.9844 44.2969 81.9844 48.4531C 81.9844 52.3594 81.3281 55.9687 80.0156 59.2812C 78.7031 62.5938 76.6875 65.4688 73.9688 67.9062C 71.2812 70.3125 67.875 72.2031 63.75 73.5781C 59.625 74.9219 54.75 75.5938 49.125 75.5938L 25.2656 75.5469L 25.2656 95L 10.4062 95L 10.4062 21.7344ZM 49.4062 62.7031C 52.2188 62.7031 54.6719 62.375 56.7656 61.7188C 58.8906 61.0312 60.6562 60.0781 62.0625 58.8594C 63.5 57.6094 64.5625 56.1094 65.25 54.3594C 65.9688 52.5781 66.3281 50.6094 66.3281 48.4531C 66.3281 44.1094 64.9062 40.7344 62.0625 38.3281C 59.25 35.8906 55.0312 34.6719 49.4062 34.6719L 25.2656 34.6719L 25.2656 62.7031L 49.4062 62.7031ZM 146.25 21.7344L 161.109 21.7344L 161.109 81.9688L 203.719 81.9688L 203.719 95L 146.25 95L 146.25 21.7344ZM 263.391 21.7344L 278.25 21.7344L 278.25 62.0938C 278.25 65.4063 278.703 68.3594 279.609 70.9531C 280.516 73.5156 281.859 75.6875 283.641 77.4688C 285.453 79.25 287.687 80.6094 290.344 81.5469C 293 82.4531 296.094 82.9062 299.625 82.9062C 303.125 82.9062 306.203 82.4531 308.859 81.5469C 311.547 80.6094 313.781 79.25 315.562 77.4688C 317.375 75.6875 318.734 73.5156 319.641 70.9531C 320.547 68.3594 321 65.4063 321 62.0938L 321 21.7344L 335.859 21.7344L 335.859 63.875C 335.859 68.6875 335.047 73.0625 333.422 77C 331.797 80.9375 329.438 84.3125 326.344 87.125C 323.25 89.9375 319.453 92.1094 314.953 93.6406C 310.484 95.1719 305.375 95.9375 299.625 95.9375C 293.875 95.9375 288.75 95.1719 284.25 93.6406C 279.781 92.1094 276 89.9375 272.906 87.125C 269.812 84.3125 267.453 80.9375 265.828 77C 264.203 73.0625 263.391 68.6875 263.391 63.875L 263.391 21.7344ZM 424.078 34.7656L 397.031 34.7656L 397.031 21.7344L 465.984 21.7344L 465.984 34.7656L 438.938 34.7656L 438.938 95L 424.078 95L 424.078 34.7656Z"/>
<path id="path1_fill" fill-rule="evenodd" d="M 60.1514 122.893C 93.7474 122.893 120.982 95.3824 120.982 61.4464C 120.982 57.3591 120.587 53.3649 119.834 49.5008C 107.216 51.596 50.8611 62.4332 8.96762 94.6659C 19.7914 111.647 38.6712 122.893 60.1514 122.893ZM 0 52.2307C 0.640106 52.0241 1.422 51.9043 2.375 51.7583C 3.8132 51.5379 5.64111 51.2578 7.95947 50.5298C 43.0571 39.5081 104.515 41.1545 119.279 46.9468C 112.827 20.0083 88.8026 0 60.1514 0C 29.6562 0 4.40201 22.6666 0 52.2307Z"/>
<path id="path2_fill" d="M 5.73952 9.30555L 0 0L 12.394 0L 5.73952 9.30555Z"/>
<path id="path3_fill" fill-rule="evenodd" d="M 8.40135 19.7539C 10.4809 19.7539 16.8027 12.7976 16.8027 8.24439C 16.8027 3.69115 13.0413 2.28127e-05 8.40134 0C 3.76139 3.01231e-05 9.6478e-07 3.69117 9.99107e-14 8.24441C -9.6478e-07 12.7976 6.98724 19.7539 8.40135 19.7539ZM 8.40137 12.734C 11.1118 12.734 13.3091 10.5778 13.3091 7.91795C 13.3091 5.25812 11.1118 3.10188 8.40138 3.10189C 5.69093 3.1019 3.49367 5.25809 3.49367 7.91792C 3.49366 10.5777 5.69092 12.734 8.40137 12.734Z"/>
<path id="path4_fill" d="M 0 0L 6.29497 5.13799L 6.38229 14.6951L 0 14.6951L 0 0Z"/>
<path id="path5_fill" d="M 0 0L 6.29446 5.13842L 6.38177 14.6963L 0 14.6963L 0 0Z"/>
<path id="path6_fill" d="M 1.4372 27.0122C 54.5459 10.8505 119.853 26.7125 119.853 26.7125C 111.879 22.007 30.8627 -0.804248 2.182 0.0218832C -2.247 15.7537 1.4372 27.0122 1.4372 27.0122Z"/>
</defs>
</svg>
