<svg width="41" height="41" viewBox="0 0 41 41" version="1.1" xmlns="http://www.w3.org/2000/svg" xmlns:xlink="http://www.w3.org/1999/xlink">
<title>View Profile</title>
<desc>Created using Figma</desc>
<g id="Canvas" transform="translate(-7721 15766)">
<g id="View Profile">
<g id="Ellipse">
<use xlink:href="#path0_fill" transform="translate(7721.53 -15765.3)" fill="url(#paint0_linear)"/>
</g>
<g id="Group 5.5">
<g id="Subtract">
<use xlink:href="#path1_fill" transform="translate(7727.53 -15752.3)" fill="#FFFFFF"/>
</g>
<g id="Ellipse 2">
<use xlink:href="#path2_fill" transform="translate(7736.95 -15751.5)" fill="#FFFFFF"/>
</g>
</g>
</g>
</g>
<defs>
<linearGradient id="paint0_linear" x1="0" y1="0" x2="1" y2="0" gradientUnits="userSpaceOnUse" gradientTransform="matrix(2.44929e-15 40 -40 2.44929e-15 40 -2.44929e-15)">
<stop offset="0" stop-color="#A9EAFF"/>
<stop offset="1" stop-color="#68D3F5"/>
</linearGradient>
<path id="path0_fill" d="M 40 20C 40 31.0457 31.0457 40 20 40C 8.9543 40 0 31.0457 0 20C 0 8.9543 8.9543 0 20 0C 31.0457 0 40 8.9543 40 20Z"/>
<path id="path1_fill" fill-rule="evenodd" d="M 28.9692 7.0332L 29 7C 26.1001 3.5 22.5083 0 14.5 0C 6.4917 0 2.8999 3.5 0 7L 0.0307617 7.0332C 2.56934 9.75684 6.52393 14 14.5 14C 22.4761 14 26.4307 9.75684 28.9692 7.0332ZM 14.5 13.2217C 17.7036 13.2217 20.3003 10.4355 20.3003 7C 20.3003 3.56348 17.7036 0.777344 14.5 0.777344C 11.2969 0.777344 8.7002 3.56348 8.7002 7C 8.7002 10.4355 11.2969 13.2217 14.5 13.2217Z"/>
<path id="path2_fill" d="M 5.8 3.11111C 5.8 4.82933 4.50163 6.22222 2.9 6.22222C 1.29837 6.22222 0 4.82933 0 3.11111C 0 1.39289 1.29837 0 2.9 0C 4.50163 0 5.8 1.39289 5.8 3.11111Z"/>
</defs>
</svg>
