<svg width="390" height="405" viewBox="0 0 390 405" version="1.1" xmlns="http://www.w3.org/2000/svg" xmlns:xlink="http://www.w3.org/1999/xlink">
<title>Group 2</title>
<desc>Created using Figma</desc>
<g id="Canvas" transform="translate(-9279 9200)">
<g id="Group 2">
<g id="Ellipse 11">
<use xlink:href="#path0_fill" transform="translate(9315 -9137.24)" fill="#FFE3E3"/>
</g>
<g id="Ellipse 2.1">
<use xlink:href="#path1_fill" transform="translate(9472.38 -8917.48)" fill="#2D9CDB"/>
</g>
<g id="Ellipse 2">
<use xlink:href="#path2_fill" transform="translate(9460.84 -8925.59)" fill="#BDBDBD"/>
</g>
<g id="Ellipse">
<use xlink:href="#path3_fill" transform="translate(9396.72 -8962.16)" fill="#828282"/>
</g>
<g id="Subtract">
<use xlink:href="#path4_fill" transform="translate(9466.58 -9015.28)" fill="#56CCF2"/>
</g>
<g id="Group">
<g id="Ellipse 2">
<use xlink:href="#path5_fill" transform="translate(9329.82 -8949.85)" fill="#219653"/>
</g>
<g id="Ellipse 3">
<use xlink:href="#path6_fill" transform="translate(9279.64 -8918.85)" fill="#219653"/>
</g>
<g id="Ellipse 4">
<use xlink:href="#path7_fill" transform="translate(9341.16 -8968.36)" fill="#219653"/>
</g>
<g id="Ellipse 4.1">
<use xlink:href="#path7_fill" transform="translate(9357.9 -8968.36)" fill="#219653"/>
</g>
<g id="Ellipse 5">
<use xlink:href="#path8_fill" transform="translate(9345.33 -8975.26)" fill="#F2F2F2"/>
</g>
<g id="Ellipse 5.1">
<use xlink:href="#path8_fill" transform="translate(9363.88 -8975.26)" fill="#F2F2F2"/>
</g>
<g id="Ellipse 6">
<use xlink:href="#path9_fill" transform="translate(9350.9 -8972.5)" fill="#333333"/>
</g>
<g id="Ellipse 6.1">
<use xlink:href="#path9_fill" transform="translate(9370.26 -8972.5)" fill="#333333"/>
</g>
<g id="Ellipse 7">
<use xlink:href="#path10_fill" transform="translate(9350.21 -8937.79)" fill="#EB5757"/>
</g>
<g id="Ellipse 8">
<use xlink:href="#path11_fill" transform="matrix(0.948652 -0.316321 0.316321 0.948652 9313.04 -8943.85)" fill="#219653"/>
</g>
<g id="Ellipse 8.1">
<use xlink:href="#path12_fill" transform="matrix(-0.819404 -0.573217 -0.573217 0.819404 9392.61 -8931.79)" fill="#219653"/>
</g>
</g>
<g id="Ellipse 9">
<use xlink:href="#path13_fill" transform="translate(9492.24 -9094.33)" fill="#C4C4C4"/>
</g>
<g id="Ellipse 9.1">
<use xlink:href="#path14_fill" transform="translate(9514.33 -9122.95)" fill="#C4C4C4"/>
</g>
<g id="Ellipse 9.2">
<use xlink:href="#path13_fill" transform="translate(9539.02 -9094.33)" fill="#C4C4C4"/>
</g>
<g id="Ellipse 10">
<use xlink:href="#path15_fill" transform="translate(9426.65 -9189.08)" fill="#C4C4C4"/>
</g>
<g id="Ellipse 10.1">
<use xlink:href="#path15_fill" transform="translate(9480.14 -9199.85)" fill="#C4C4C4"/>
</g>
<g id="Ellipse 10.2">
<use xlink:href="#path15_fill" transform="translate(9492.55 -9180.37)" fill="#C4C4C4"/>
</g>
<g id="Ellipse 10.3">
<use xlink:href="#path15_fill" transform="translate(9528.38 -9189.08)" fill="#C4C4C4"/>
</g>
</g>
</g>
<defs>
<path id="path0_fill" d="M 341.517 170.758C 341.517 265.066 265.066 341.517 170.758 341.517C 76.4511 341.517 0 265.066 0 170.758C 0 76.4511 76.4511 0 170.758 0C 265.066 0 341.517 76.4511 341.517 170.758Z"/>
<path id="path1_fill" d="M 108.714 23.9616C 108.714 37.1952 84.3779 47.9231 54.3572 47.9231C 24.3366 47.9231 0 37.1952 0 23.9616C 0 10.728 24.3366 0 54.3572 0C 84.3779 0 108.714 10.728 108.714 23.9616Z"/>
<path id="path2_fill" d="M 131.789 23.9616C 131.789 37.1952 102.287 47.9231 65.8946 47.9231C 29.502 47.9231 0 37.1952 0 23.9616C 0 10.728 29.502 0 65.8946 0C 102.287 0 131.789 10.728 131.789 23.9616Z"/>
<path id="path3_fill" d="M 272.136 32.5194C 272.136 50.4793 211.216 65.0388 136.068 65.0388C 60.9197 65.0388 0 50.4793 0 32.5194C 0 14.5594 60.9197 0 136.068 0C 211.216 0 272.136 14.5594 272.136 32.5194Z"/>
<path id="path4_fill" fill-rule="evenodd" d="M 71.7305 88.5342C 99.417 89.041 120.315 89.4238 120.315 60.1582C 120.315 26.9336 93.3818 0 60.1582 0C 49.5449 0 39.5742 2.74805 30.9189 7.57129C 29.5518 8.33301 28.2178 9.14648 26.9189 10.0088L 26.0127 13.9365L 35.5811 17.7646L 26.0127 22.5488L 28.8828 34.9883L 15.7676 27.502L 7.0791 31.8193C 2.56152 40.2637 0 49.9121 0 60.1582C 0 89.4238 20.8984 89.041 48.5859 88.5342C 52.3311 88.4658 56.2002 88.3955 60.1582 88.3955C 64.1162 88.3955 67.9854 88.4658 71.7305 88.5342Z"/>
<path id="path5_fill" d="M 46.4588 23.0053C 46.4588 35.7108 36.0586 46.0106 23.2294 46.0106C 10.4002 46.0106 0 35.7108 0 23.0053C 0 10.2998 10.4002 0 23.2294 0C 36.0586 0 46.4588 10.2998 46.4588 23.0053Z"/>
<path id="path6_fill" d="M 93.5673 18.2713C 93.5673 32.7914 74.4168 44.5623 50.7935 44.5623C 27.1702 44.5623 0 50.2129 0 35.6928C 0 21.1726 27.1702 0 50.7935 0C 74.4168 0 93.5673 3.75119 93.5673 18.2713Z"/>
<path id="path7_fill" d="M 9.91866 17.9374C 9.91866 27.844 13.9661 35.8749 11.2272 35.8749C 8.4882 35.8749 0 27.844 0 17.9374C 0 8.03086 8.4882 0 11.2272 0C 13.9661 0 9.91866 8.03086 9.91866 17.9374Z"/>
<path id="path8_fill" d="M 12.3983 6.19913C 12.3983 9.62281 9.62281 12.3983 6.19913 12.3983C 2.77544 12.3983 0 9.62281 0 6.19913C 0 2.77544 2.77544 0 6.19913 0C 9.62281 0 12.3983 2.77544 12.3983 6.19913Z"/>
<path id="path9_fill" d="M 6.01718 3.00859C 6.01718 4.67019 4.67019 6.01718 3.00859 6.01718C 1.34699 6.01718 0 4.67019 0 3.00859C 0 1.34699 1.34699 0 3.00859 0C 4.67019 0 6.01718 1.34699 6.01718 3.00859Z"/>
<path id="path10_fill" d="M 19.1704 5.44925C 19.1704 7.39031 14.879 4.81889 9.58521 4.81889C 4.29145 4.81889 0 7.39031 0 5.44925C 0 3.5082 4.29145 0 9.58521 0C 14.879 0 19.1704 3.5082 19.1704 5.44925Z"/>
<path id="path11_fill" d="M 12.4213 16.9254C 12.4213 26.2731 11.2748 33.8509 7.26336 33.8509C 3.25192 33.8509 0 26.2731 0 16.9254C 0 7.57778 3.25192 0 7.26336 0C 11.2748 0 12.4213 7.57778 12.4213 16.9254Z"/>
<path id="path12_fill" d="M 12.4213 16.9254C 12.4213 26.2731 9.49879 41.7125 5.48735 41.7125C 1.47591 41.7125 0 26.2731 0 16.9254C 0 7.57778 3.25192 0 7.26336 0C 11.2748 0 12.4213 7.57778 12.4213 16.9254Z"/>
<path id="path13_fill" d="M 12.2844 36.5834C 12.2844 43.4729 4.59985 49.9176 4.3695 55.4198C 3.92433 66.0536 6.88968 73.1669 5.96341 73.1669C 5.03715 73.1669 0.450425 66.0536 0.00525436 55.4198C -0.225088 49.9176 7.1945 43.4729 7.1945 36.5834C 7.1945 29.094 -0.201011 22.1303 0.0676293 16.3315C 0.523712 6.48678 5.07888 0 5.96341 0C 6.84795 0 3.85105 6.48678 4.30713 16.3315C 4.57577 22.1303 12.2844 29.094 12.2844 36.5834Z"/>
<path id="path14_fill" d="M 16.965 50.5223C 16.965 60.0368 6.35246 68.937 6.03436 76.5356C 5.41957 91.221 9.51476 101.045 8.23557 101.045C 6.95638 101.045 0.622045 91.221 0.00725636 76.5356C -0.31085 68.937 9.93572 60.0368 9.93572 50.5223C 9.93572 40.1793 -0.2776 30.5623 0.0933971 22.5541C 0.723254 8.95835 7.01402 0 8.23557 0C 9.45713 0 5.31836 8.95835 5.94822 22.5541C 6.31921 30.5623 16.965 40.1793 16.965 50.5223Z"/>
<path id="path15_fill" d="M 80.0208 25.433C 80.0208 39.4793 62.1076 50.8661 40.0104 50.8661C 17.9133 50.8661 0 39.4793 0 25.433C 0 11.3868 17.9133 0 40.0104 0C 62.1076 0 80.0208 11.3868 80.0208 25.433Z"/>
</defs>
</svg>
