<svg width="249" height="239" viewBox="0 0 249 239" version="1.1" xmlns="http://www.w3.org/2000/svg" xmlns:xlink="http://www.w3.org/1999/xlink">
<title>Group 16</title>
<desc>Created using Figma</desc>
<g id="Canvas" transform="translate(-4251 -823)">
<g id="Group 16">
<g id="Rectangle 2.1">
<use xlink:href="#path0_fill" transform="translate(4256.72 828.447)" fill="#FFDEDE"/>
<mask id="mask0_outline_out">
<rect id="mask0_outline_inv" fill="white" x="-5" y="-5" width="248" height="238" transform="translate(4256.72 828.447)"/>
<use xlink:href="#path0_fill" fill="black" transform="translate(4256.72 828.447)"/>
</mask>
<g mask="url(#mask0_outline_out)">
<use xlink:href="#path1_stroke_2x" transform="translate(4256.72 828.447)" fill="#FF8080"/>
</g>
</g>
<g id="Group 14">
<g id="Rectangle 4">
<use xlink:href="#path2_fill" transform="translate(4329.14 880.161)" fill="#FFFFFF"/>
</g>
<g id="Rectangle 3">
<use xlink:href="#path3_fill" transform="translate(4338.77 896.079)" fill="#FFDEDE"/>
<mask id="mask1_outline_ins">
<use xlink:href="#path3_fill" fill="white" transform="translate(4338.77 896.079)"/>
</mask>
<g mask="url(#mask1_outline_ins)">
<use xlink:href="#path4_stroke_2x" transform="translate(4338.77 896.079)" fill="#FF8080"/>
</g>
</g>
<g id="Rectangle 3.1">
<use xlink:href="#path3_fill" transform="translate(4338.77 924.779)" fill="#FFDEDE"/>
<mask id="mask2_outline_ins">
<use xlink:href="#path3_fill" fill="white" transform="translate(4338.77 924.779)"/>
</mask>
<g mask="url(#mask2_outline_ins)">
<use xlink:href="#path4_stroke_2x" transform="translate(4338.77 924.779)" fill="#FF8080"/>
</g>
</g>
<g id="Rectangle 3.2">
<use xlink:href="#path3_fill" transform="translate(4338.77 953.48)" fill="#FFDEDE"/>
<mask id="mask3_outline_ins">
<use xlink:href="#path3_fill" fill="white" transform="translate(4338.77 953.48)"/>
</mask>
<g mask="url(#mask3_outline_ins)">
<use xlink:href="#path4_stroke_2x" transform="translate(4338.77 953.48)" fill="#FF8080"/>
</g>
</g>
<g id="Ellipse">
<use xlink:href="#path5_fill" transform="translate(4301.89 887.387)" fill="#FFFFFF"/>
<mask id="mask4_outline_out">
<rect id="mask4_outline_inv" fill="white" x="-10" y="-10" width="70" height="70" transform="translate(4301.89 887.387)"/>
<use xlink:href="#path5_fill" fill="black" transform="translate(4301.89 887.387)"/>
</mask>
<g mask="url(#mask4_outline_out)">
<use xlink:href="#path6_stroke_2x" transform="translate(4301.89 887.387)" fill="#FFFFFF"/>
</g>
</g>
<g id="Ellipse">
<use xlink:href="#path7_fill" transform="translate(4279 949.432)" fill="#FFFFFF"/>
<mask id="mask5_outline_out">
<rect id="mask5_outline_inv" fill="white" x="-10" y="-10" width="118" height="60" transform="translate(4279 949.432)"/>
<use xlink:href="#path7_fill" fill="black" transform="translate(4279 949.432)"/>
</mask>
<g mask="url(#mask5_outline_out)">
<use xlink:href="#path8_stroke_2x" transform="translate(4279 949.432)" fill="#FFFFFF"/>
</g>
</g>
<g id="Ellipse">
<use xlink:href="#path5_fill" transform="translate(4301.89 887.387)" fill="#FFFFFF"/>
<mask id="mask6_outline_ins">
<use xlink:href="#path5_fill" fill="white" transform="translate(4301.89 887.387)"/>
</mask>
<g mask="url(#mask6_outline_ins)">
<use xlink:href="#path9_stroke_2x" transform="translate(4301.89 887.387)" fill="#FF8080"/>
</g>
</g>
<g id="Ellipse">
<use xlink:href="#path7_fill" transform="translate(4279 949.432)" fill="#FFFFFF"/>
<mask id="mask7_outline_ins">
<use xlink:href="#path7_fill" fill="white" transform="translate(4279 949.432)"/>
</mask>
<g mask="url(#mask7_outline_ins)">
<use xlink:href="#path10_stroke_2x" transform="translate(4279 949.432)" fill="#FF8080"/>
</g>
</g>
<g id="Subtract">
<use xlink:href="#path11_fill" transform="translate(4334.35 948.962)" fill="#FFDEDE"/>
<mask id="mask8_outline_ins">
<use xlink:href="#path11_fill" fill="white" transform="translate(4334.35 948.962)"/>
</mask>
<g mask="url(#mask8_outline_ins)">
<use xlink:href="#path12_stroke_2x" transform="translate(4334.35 948.962)" fill="#FF8080"/>
</g>
</g>
<g id="Subtract">
<mask id="mask9_outline_out">
<rect id="mask9_outline_inv" fill="white" x="-5" y="-5" width="70" height="79" transform="translate(4334.35 948.962)"/>
<use xlink:href="#path11_fill" fill="black" transform="translate(4334.35 948.962)"/>
</mask>
<g mask="url(#mask9_outline_out)">
<use xlink:href="#path12_stroke_2x" transform="translate(4334.35 948.962)" fill="#FFFFFF"/>
</g>
</g>
<g id="Vector">
<use xlink:href="#path13_stroke" transform="translate(4311.67 897.023)" fill="#FFDEDE"/>
</g>
<g id="Vector">
<use xlink:href="#path14_stroke" transform="translate(4347.77 966.057)" fill="#FFFFFF"/>
</g>
<g id="!">
<use xlink:href="#path15_fill" transform="translate(4359.53 957.709)" fill="#FF8080"/>
</g>
</g>
</g>
</g>
<defs>
<path id="path0_fill" d="M 0 9.99999C 0 4.47715 4.47715 0 10 0L 227.556 0C 233.079 0 237.556 4.47715 237.556 10L 237.556 217.693C 237.556 223.216 233.079 227.693 227.556 227.693L 10 227.693C 4.47715 227.693 0 223.216 0 217.693L 0 9.99999Z"/>
<path id="path1_stroke_2x" d="M 10 5L 227.556 5L 227.556 -5L 10 -5L 10 5ZM 232.556 10L 232.556 217.693L 242.556 217.693L 242.556 10L 232.556 10ZM 227.556 222.693L 10 222.693L 10 232.693L 227.556 232.693L 227.556 222.693ZM 5 217.693L 5 9.99999L -5 9.99999L -5 217.693L 5 217.693ZM 10 222.693C 7.23858 222.693 5 220.454 5 217.693L -5 217.693C -5 225.977 1.71573 232.693 10 232.693L 10 222.693ZM 232.556 217.693C 232.556 220.454 230.318 222.693 227.556 222.693L 227.556 232.693C 235.84 232.693 242.556 225.977 242.556 217.693L 232.556 217.693ZM 227.556 5C 230.318 5 232.556 7.23858 232.556 10L 242.556 10C 242.556 1.71573 235.84 -5 227.556 -5L 227.556 5ZM 10 -5C 1.71573 -5 -5 1.71572 -5 9.99999L 5 9.99999C 5 7.23857 7.23857 5 10 5L 10 -5Z"/>
<path id="path2_fill" d="M 0 15C 0 6.71573 6.71573 0 15 0L 136.134 0C 144.418 0 151.134 6.71573 151.134 15L 151.134 98.8372C 151.134 107.121 144.418 113.837 136.134 113.837L 15 113.837C 6.71572 113.837 0 107.121 0 98.8372L 0 15Z"/>
<path id="path3_fill" d="M 0 9.61766C 0 4.30597 4.30597 0 9.61766 0L 117.525 0C 122.836 0 127.142 4.30597 127.142 9.61766C 127.142 14.9293 122.836 19.2353 117.525 19.2353L 9.61766 19.2353C 4.30597 19.2353 0 14.9293 0 9.61766Z"/>
<path id="path4_stroke_2x" d="M 9.61766 3L 117.525 3L 117.525 -3L 9.61766 -3L 9.61766 3ZM 117.525 16.2353L 9.61766 16.2353L 9.61766 22.2353L 117.525 22.2353L 117.525 16.2353ZM 9.61766 16.2353C 5.96283 16.2353 3 13.2725 3 9.61766L -3 9.61766C -3 16.5862 2.64912 22.2353 9.61766 22.2353L 9.61766 16.2353ZM 124.142 9.61766C 124.142 13.2725 121.18 16.2353 117.525 16.2353L 117.525 22.2353C 124.493 22.2353 130.142 16.5862 130.142 9.61766L 124.142 9.61766ZM 117.525 3C 121.18 3 124.142 5.96283 124.142 9.61766L 130.142 9.61766C 130.142 2.64912 124.493 -3 117.525 -3L 117.525 3ZM 9.61766 -3C 2.64912 -3 -3 2.64912 -3 9.61766L 3 9.61766C 3 5.96283 5.96283 3 9.61766 3L 9.61766 -3Z"/>
<path id="path5_fill" d="M 49.5732 24.7866C 49.5732 38.4759 38.4759 49.5732 24.7866 49.5732C 11.0973 49.5732 0 38.4759 0 24.7866C 0 11.0973 11.0973 0 24.7866 0C 38.4759 0 49.5732 11.0973 49.5732 24.7866Z"/>
<path id="path6_stroke_2x" d="M 39.5732 24.7866C 39.5732 32.953 32.953 39.5732 24.7866 39.5732L 24.7866 59.5732C 43.9987 59.5732 59.5732 43.9987 59.5732 24.7866L 39.5732 24.7866ZM 24.7866 39.5732C 16.6202 39.5732 10 32.953 10 24.7866L -10 24.7866C -10 43.9987 5.57449 59.5732 24.7866 59.5732L 24.7866 39.5732ZM 10 24.7866C 10 16.6202 16.6202 10 24.7866 10L 24.7866 -10C 5.57449 -10 -10 5.57449 -10 24.7866L 10 24.7866ZM 24.7866 10C 32.953 10 39.5732 16.6202 39.5732 24.7866L 59.5732 24.7866C 59.5732 5.57449 43.9987 -10 24.7866 -10L 24.7866 10Z"/>
<path id="path7_fill" d="M 48.6699 0C 21.7902 0 0 17.6764 0 39.4815L 97.3397 39.4815C 97.3397 17.6764 75.5495 0 48.6699 0Z"/>
<path id="path8_stroke_2x" d="M 0 39.4815L -10 39.4815L -10 49.4815L 0 49.4815L 0 39.4815ZM 97.3397 39.4815L 97.3397 49.4815L 107.34 49.4815L 107.34 39.4815L 97.3397 39.4815ZM 10 39.4815C 10 25.0526 25.2566 10 48.6699 10L 48.6699 -10C 18.3239 -10 -10 10.3003 -10 39.4815L 10 39.4815ZM 48.6699 10C 72.0831 10 87.3397 25.0526 87.3397 39.4815L 107.34 39.4815C 107.34 10.3003 79.0158 -10 48.6699 -10L 48.6699 10ZM 0 49.4815L 97.3397 49.4815L 97.3397 29.4815L 0 29.4815L 0 49.4815Z"/>
<path id="path9_stroke_2x" d="M 44.5732 24.7866C 44.5732 35.7144 35.7144 44.5732 24.7866 44.5732L 24.7866 54.5732C 41.2373 54.5732 54.5732 41.2373 54.5732 24.7866L 44.5732 24.7866ZM 24.7866 44.5732C 13.8588 44.5732 5 35.7144 5 24.7866L -5 24.7866C -5 41.2373 8.33592 54.5732 24.7866 54.5732L 24.7866 44.5732ZM 5 24.7866C 5 13.8588 13.8588 5 24.7866 5L 24.7866 -5C 8.33592 -5 -5 8.33592 -5 24.7866L 5 24.7866ZM 24.7866 5C 35.7144 5 44.5732 13.8588 44.5732 24.7866L 54.5732 24.7866C 54.5732 8.33592 41.2373 -5 24.7866 -5L 24.7866 5Z"/>
<path id="path10_stroke_2x" d="M 0 39.4815L -5 39.4815L -5 44.4815L 0 44.4815L 0 39.4815ZM 97.3397 39.4815L 97.3397 44.4815L 102.34 44.4815L 102.34 39.4815L 97.3397 39.4815ZM 5 39.4815C 5 21.3645 23.5234 5 48.6699 5L 48.6699 -5C 20.0571 -5 -5 13.9884 -5 39.4815L 5 39.4815ZM 48.6699 5C 73.8163 5 92.3397 21.3645 92.3397 39.4815L 102.34 39.4815C 102.34 13.9884 77.2827 -5 48.6699 -5L 48.6699 5ZM 0 44.4815L 97.3397 44.4815L 97.3397 34.4815L 0 34.4815L 0 44.4815Z"/>
<path id="path11_fill" fill-rule="evenodd" d="M 0 12.0547L 0 37.215C 0 38.5094 0.501953 39.7533 1.40039 40.6852L 26.3843 66.6022C 28.3511 68.642 31.6177 68.642 33.584 66.6022L 58.5684 40.6852C 59.4663 39.7533 59.9683 38.5094 59.9683 37.215L 59.9683 11.3209C 57.2847 12.7297 54.2295 13.5267 50.9883 13.5267C 42.3311 13.5267 35.002 7.84094 32.5312 0L 26.5317 0C 24.6069 8.12671 17.3042 14.173 8.58887 14.173C 5.4873 14.173 2.56494 13.4073 0 12.0547Z"/>
<path id="path12_stroke_2x" d="M 0 12.0547L 2.33237 7.63201L -5 3.76518L -5 12.0547L 0 12.0547ZM 1.40039 40.6852L 5.00013 37.215L 4.99993 37.2148L 1.40039 40.6852ZM 26.3843 66.6022L 22.7845 70.0723L 22.7849 70.0727L 26.3843 66.6022ZM 33.584 66.6022L 29.9843 63.132L 29.9842 63.1321L 33.584 66.6022ZM 58.5684 40.6852L 62.1681 44.1554L 62.1688 44.1545L 58.5684 40.6852ZM 59.9683 11.3209L 64.9683 11.3209L 64.9683 3.04894L 57.6442 6.89388L 59.9683 11.3209ZM 32.5312 0L 37.3001 -1.50268L 36.1981 -5L 32.5312 -5L 32.5312 0ZM 26.5317 0L 26.5317 -5L 22.5777 -5L 21.6663 -1.15236L 26.5317 0ZM -5 12.0547L -5 37.215L 5 37.215L 5 12.0547L -5 12.0547ZM -5 37.215C -5 39.8038 -3.99606 42.2917 -2.19915 44.1555L 4.99993 37.2148L 5 37.215L -5 37.215ZM -2.19935 44.1553L 22.7845 70.0723L 29.984 63.132L 5.00013 37.215L -2.19935 44.1553ZM 22.7849 70.0727C 26.7178 74.1515 33.2508 74.1522 37.1838 70.0723L 29.9842 63.1321L 29.9836 63.1316L 22.7849 70.0727ZM 37.1837 70.0723L 62.1681 44.1554L 54.9687 37.215L 29.9843 63.132L 37.1837 70.0723ZM 62.1688 44.1545C 63.9645 42.2911 64.9683 39.8037 64.9683 37.215L 54.9683 37.215L 54.9679 37.2158L 62.1688 44.1545ZM 64.9683 37.215L 64.9683 11.3209L 54.9683 11.3209L 54.9683 37.215L 64.9683 37.215ZM 57.6442 6.89388C 55.4798 8.06684 53.5933 8.56738 50.9883 8.52673L 50.9883 18.5267C 54.8657 18.4861 59.0895 17.3926 62.2923 15.748L 57.6442 6.89388ZM 50.9883 8.52673C 44.5759 8.52673 39.1338 4.3166 37.3001 -1.50268L 27.7624 1.50268C 30.8701 11.3653 40.0863 18.5267 50.9883 18.5267L 50.9883 8.52673ZM 32.5312 -5L 26.5317 -5L 26.5317 5L 32.5312 5L 32.5312 -5ZM 21.6663 -1.15236C 20.2635 4.77049 14.9344 9.17297 8.58887 9.17297L 8.58887 19.173C 19.674 19.173 28.9503 11.4829 31.3971 1.15236L 21.6663 -1.15236ZM 8.58887 9.17297C 6.12613 9.21395 4.37658 8.7471 2.33237 7.63201L -2.33237 16.4774C 0.753301 18.0676 4.84848 19.132 8.58887 19.173L 8.58887 9.17297Z"/>
<path id="path13_stroke" d="M 1.06066 14.0874L 14.0874 1.06066L 11.9661 -1.06066L -1.06066 11.9661L 1.06066 14.0874ZM 1.06066 22.3772L 22.3772 1.06066L 20.2558 -1.06066L -1.06066 20.2558L 1.06066 22.3772Z"/>
<path id="path14_stroke" d="M 1.06066 15.0499L 15.0499 1.06066L 12.9286 -1.06066L -1.06066 12.9286L 1.06066 15.0499ZM 1.06066 23.9522L 23.9522 1.06066L 21.8309 -1.06066L -1.06066 21.8309L 1.06066 23.9522Z"/>
<path id="path15_fill" d="M 1.692 20.74L 1.692 15.16L 9.288 15.16L 9.288 20.74L 7.884 30.928L 3.132 30.928L 1.692 20.74ZM 5.508 40.216C 4.236 40.216 3.24 39.868 2.52 39.172C 1.8 38.476 1.44 37.6 1.44 36.544C 1.44 35.464 1.812 34.588 2.556 33.916C 3.3 33.244 4.284 32.908 5.508 32.908C 6.708 32.908 7.68 33.268 8.424 33.988C 9.168 34.684 9.54 35.536 9.54 36.544C 9.54 37.672 9.192 38.572 8.496 39.244C 7.8 39.892 6.804 40.216 5.508 40.216Z"/>
</defs>
</svg>
