<svg width="249" height="239" viewBox="0 0 249 239" version="1.1" xmlns="http://www.w3.org/2000/svg" xmlns:xlink="http://www.w3.org/1999/xlink">
<title>Group 17</title>
<desc>Created using Figma</desc>
<g id="Canvas" transform="translate(-4539 -823)">
<g id="Group 17">
<g id="Rectangle 2.4">
<use xlink:href="#path0_fill" transform="translate(4544.94 828.447)" fill="#FFFAEB"/>
<mask id="mask0_outline_out">
<rect id="mask0_outline_inv" fill="white" x="-5" y="-5" width="248" height="238" transform="translate(4544.94 828.447)"/>
<use xlink:href="#path0_fill" fill="black" transform="translate(4544.94 828.447)"/>
</mask>
<g mask="url(#mask0_outline_out)">
<use xlink:href="#path1_stroke_2x" transform="translate(4544.94 828.447)" fill="#F2C94C"/>
</g>
</g>
<g id="Union">
<use xlink:href="#path2_fill" transform="translate(4558.96 884.388)" fill="#FFFFFF"/>
<mask id="mask1_outline_out">
<rect id="mask1_outline_inv" fill="white" x="-7" y="-8" width="222" height="170" transform="translate(4558.96 884.388)"/>
<use xlink:href="#path2_fill" fill="black" transform="translate(4558.96 884.388)"/>
</mask>
<g mask="url(#mask1_outline_out)">
<use xlink:href="#path3_stroke_2x" transform="translate(4558.96 884.388)" fill="#FFFFFF"/>
</g>
</g>
<g id="Group 11">
<g id="Group 10.2">
<g id="Group 9">
<g id="Ellipse 2.1">
<use xlink:href="#path4_fill" transform="translate(4645.33 840.782)" fill="#FFFAEB"/>
<mask id="mask2_outline_out">
<rect id="mask2_outline_inv" fill="white" x="-5" y="-5" width="41" height="41" transform="translate(4645.33 840.782)"/>
<use xlink:href="#path4_fill" fill="black" transform="translate(4645.33 840.782)"/>
</mask>
<g mask="url(#mask2_outline_out)">
<use xlink:href="#path5_stroke_2x" transform="translate(4645.33 840.782)" fill="#FFFFFF"/>
</g>
</g>
<g id="Ellipse 2">
<use xlink:href="#path4_fill" transform="translate(4645.33 840.782)" fill="#FFFAEB"/>
<mask id="mask3_outline_ins">
<use xlink:href="#path4_fill" fill="white" transform="translate(4645.33 840.782)"/>
</mask>
<g mask="url(#mask3_outline_ins)">
<use xlink:href="#path6_stroke_2x" transform="translate(4645.33 840.782)" fill="#F2C94C"/>
</g>
</g>
</g>
<g id="$">
<use xlink:href="#path7_fill" transform="translate(4653.46 837.777)" fill="#D6A611"/>
</g>
</g>
<g id="Union">
<use xlink:href="#path8_fill" transform="translate(4559.92 892.534)" fill="#FFFAEB"/>
<mask id="mask4_outline_ins">
<use xlink:href="#path8_fill" fill="white" transform="translate(4559.92 892.534)"/>
</mask>
<g mask="url(#mask4_outline_ins)">
<use xlink:href="#path9_stroke_2x" transform="translate(4559.92 892.534)" fill="#F2C94C"/>
</g>
</g>
<g id="Group 10.1">
<g id="Group 9">
<g id="Ellipse 2.1">
<use xlink:href="#path4_fill" transform="translate(4629.53 863.235)" fill="#FFFAEB"/>
<mask id="mask5_outline_out">
<rect id="mask5_outline_inv" fill="white" x="-5" y="-5" width="41" height="41" transform="translate(4629.53 863.235)"/>
<use xlink:href="#path4_fill" fill="black" transform="translate(4629.53 863.235)"/>
</mask>
<g mask="url(#mask5_outline_out)">
<use xlink:href="#path5_stroke_2x" transform="translate(4629.53 863.235)" fill="#FFFFFF"/>
</g>
</g>
<g id="Ellipse 2">
<use xlink:href="#path4_fill" transform="translate(4629.53 863.235)" fill="#FFFAEB"/>
<mask id="mask6_outline_ins">
<use xlink:href="#path4_fill" fill="white" transform="translate(4629.53 863.235)"/>
</mask>
<g mask="url(#mask6_outline_ins)">
<use xlink:href="#path6_stroke_2x" transform="translate(4629.53 863.235)" fill="#F2C94C"/>
</g>
</g>
</g>
<g id="$">
<use xlink:href="#path7_fill" transform="translate(4637.66 860.229)" fill="#D6A611"/>
</g>
</g>
<g id="Ellipse">
<use xlink:href="#path10_fill" transform="translate(4714.72 939.039)" fill="#FFFAEB"/>
<use xlink:href="#path11_stroke" transform="translate(4714.72 939.039)" fill="#F2C94C"/>
</g>
<g id="Rectangle 4">
<use xlink:href="#path12_fill" transform="translate(4640.79 921.314)" fill="#A88518"/>
<mask id="mask7_outline_ins">
<use xlink:href="#path12_fill" fill="white" transform="translate(4640.79 921.314)"/>
</mask>
<g mask="url(#mask7_outline_ins)">
<use xlink:href="#path13_stroke_2x" transform="translate(4640.79 921.314)" fill="#F2C94C"/>
</g>
</g>
<g id="Group 10">
<g id="Group 9">
<g id="Ellipse 2.1">
<use xlink:href="#path4_fill" transform="translate(4645.33 882.361)" fill="#FFFAEB"/>
<mask id="mask8_outline_out">
<rect id="mask8_outline_inv" fill="white" x="-5" y="-5" width="41" height="41" transform="translate(4645.33 882.361)"/>
<use xlink:href="#path4_fill" fill="black" transform="translate(4645.33 882.361)"/>
</mask>
<g mask="url(#mask8_outline_out)">
<use xlink:href="#path5_stroke_2x" transform="translate(4645.33 882.361)" fill="#FFFFFF"/>
</g>
</g>
<g id="Ellipse 2">
<use xlink:href="#path4_fill" transform="translate(4645.33 882.361)" fill="#FFFAEB"/>
<mask id="mask9_outline_ins">
<use xlink:href="#path4_fill" fill="white" transform="translate(4645.33 882.361)"/>
</mask>
<g mask="url(#mask9_outline_ins)">
<use xlink:href="#path6_stroke_2x" transform="translate(4645.33 882.361)" fill="#F2C94C"/>
</g>
</g>
</g>
<g id="$">
<use xlink:href="#path7_fill" transform="translate(4653.46 879.355)" fill="#D6A611"/>
</g>
</g>
</g>
</g>
</g>
<defs>
<path id="path0_fill" d="M 0 9.99999C 0 4.47715 4.47715 0 10 0L 227.556 0C 233.079 0 237.556 4.47715 237.556 10L 237.556 217.693C 237.556 223.216 233.079 227.693 227.556 227.693L 10 227.693C 4.47715 227.693 0 223.216 0 217.693L 0 9.99999Z"/>
<path id="path1_stroke_2x" d="M 10 5L 227.556 5L 227.556 -5L 10 -5L 10 5ZM 232.556 10L 232.556 217.693L 242.556 217.693L 242.556 10L 232.556 10ZM 227.556 222.693L 10 222.693L 10 232.693L 227.556 232.693L 227.556 222.693ZM 5 217.693L 5 9.99999L -5 9.99999L -5 217.693L 5 217.693ZM 10 222.693C 7.23858 222.693 5 220.454 5 217.693L -5 217.693C -5 225.977 1.71573 232.693 10 232.693L 10 222.693ZM 232.556 217.693C 232.556 220.454 230.318 222.693 227.556 222.693L 227.556 232.693C 235.84 232.693 242.556 225.977 242.556 217.693L 232.556 217.693ZM 227.556 5C 230.318 5 232.556 7.23858 232.556 10L 242.556 10C 242.556 1.71573 235.84 -5 227.556 -5L 227.556 5ZM 10 -5C 1.71573 -5 -5 1.71572 -5 9.99999L 5 9.99999C 5 7.23857 7.23857 5 10 5L 10 -5Z"/>
<path id="path2_fill" fill-rule="evenodd" d="M 141.335 1.70613C 143.101 -0.816274 146.936 -0.480947 148.237 2.3097L 160.268 28.1071C 160.387 28.3623 160.476 28.6204 160.539 28.8787C 175.977 35.0989 188.778 44.0128 195.257 55.3718L 202.64 55.3718C 205.401 55.3718 207.64 57.6104 207.64 60.3718L 207.64 77.8217C 207.64 80.5831 205.401 82.8217 202.64 82.8217L 199.007 82.8217C 195.654 103.762 182.33 118.804 164.919 128.662L 164.919 144.045C 164.919 149.568 160.442 154.045 154.919 154.045L 137.702 154.045C 132.179 154.045 127.702 149.568 127.702 144.045L 127.702 141.457C 120.066 142.764 112.389 143.399 104.986 143.399C 99.958 143.399 95.0415 143.013 90.2798 142.276L 90.2798 144.045C 90.2798 149.568 85.8027 154.045 80.2798 154.045L 63.0625 154.045C 57.5396 154.045 53.0625 149.568 53.0625 144.045L 53.0625 127.323C 37.3354 115.89 27.4502 99.3403 27.4502 80.93C 27.4502 78.0112 27.6987 75.1392 28.1797 72.3269C 27.937 72.3323 27.6938 72.335 27.4497 72.335C 12.2896 72.335 0 61.7424 0 59.3487C 0 58.3269 2.23926 58.9642 5.98535 60.0305C 11.0151 61.462 18.7612 63.6667 27.4497 63.6667C 28.4736 63.6667 29.4849 63.6361 30.48 63.5797C 39.8125 37.5203 69.6367 18.4615 104.986 18.4615C 112.595 18.4615 120.493 19.0712 128.339 20.2676L 141.335 1.70613Z"/>
<path id="path3_stroke_2x" d="M 148.237 2.3097L 141.893 5.26797L 141.893 5.26828L 148.237 2.3097ZM 141.335 1.70613L 135.601 -2.30877L 135.601 -2.30875L 141.335 1.70613ZM 160.268 28.1071L 153.924 31.0657L 153.925 31.069L 160.268 28.1071ZM 160.539 28.8787L 153.735 30.5249L 154.582 34.0255L 157.923 35.3715L 160.539 28.8787ZM 195.257 55.3718L 189.176 58.84L 191.191 62.3718L 195.257 62.3718L 195.257 55.3718ZM 199.007 82.8217L 199.007 75.8217L 193.039 75.8217L 192.095 81.7149L 199.007 82.8217ZM 164.919 128.662L 161.47 122.57L 157.919 124.581L 157.919 128.662L 164.919 128.662ZM 127.702 141.457L 134.702 141.457L 134.702 133.156L 126.52 134.557L 127.702 141.457ZM 90.2798 142.276L 91.3499 135.359L 83.2798 134.11L 83.2798 142.276L 90.2798 142.276ZM 53.0625 127.323L 60.0625 127.323L 60.0625 123.758L 57.1785 121.661L 53.0625 127.323ZM 28.1797 72.3269L 35.0795 73.5069L 36.5106 65.1386L 28.023 65.3286L 28.1797 72.3269ZM 5.98535 60.0305L 4.0691 66.7631L 4.06911 66.7631L 5.98535 60.0305ZM 30.48 63.5797L 30.8761 70.5684L 35.5064 70.306L 37.0701 65.9398L 30.48 63.5797ZM 128.339 20.2676L 127.284 27.1876L 131.58 27.8428L 134.073 24.2825L 128.339 20.2676ZM 154.581 -0.648566C 151.002 -8.32357 140.457 -9.24496 135.601 -2.30877L 147.069 5.72102C 145.745 7.61241 142.869 7.36168 141.893 5.26797L 154.581 -0.648566ZM 166.612 25.1486L 154.581 -0.648873L 141.893 5.26828L 153.924 31.0657L 166.612 25.1486ZM 167.342 27.2324C 167.193 26.65 166.874 25.7328 166.61 25.1453L 153.925 31.069C 153.845 30.8978 153.781 30.7149 153.735 30.5249L 167.342 27.2324ZM 201.337 51.9036C 193.741 38.5855 179.268 28.8782 163.155 22.3859L 157.923 35.3715C 172.685 41.3196 183.815 49.4402 189.176 58.84L 201.337 51.9036ZM 202.64 48.3718L 195.257 48.3718L 195.257 62.3718L 202.64 62.3718L 202.64 48.3718ZM 214.64 60.3718C 214.64 53.7443 209.267 48.3718 202.64 48.3718L 202.64 62.3718C 201.535 62.3718 200.64 61.4766 200.64 60.3718L 214.64 60.3718ZM 214.64 77.8217L 214.64 60.3718L 200.64 60.3718L 200.64 77.8217L 214.64 77.8217ZM 202.64 89.8217C 209.267 89.8217 214.64 84.4492 214.64 77.8217L 200.64 77.8217C 200.64 76.7169 201.535 75.8217 202.64 75.8217L 202.64 89.8217ZM 199.007 89.8217L 202.64 89.8217L 202.64 75.8217L 199.007 75.8217L 199.007 89.8217ZM 168.368 134.753C 187.113 124.14 202.146 107.495 205.919 83.9284L 192.095 81.7149C 189.163 100.028 177.547 113.468 161.47 122.57L 168.368 134.753ZM 171.919 144.045L 171.919 128.662L 157.919 128.662L 157.919 144.045L 171.919 144.045ZM 154.919 161.045C 164.308 161.045 171.919 153.434 171.919 144.045L 157.919 144.045C 157.919 145.702 156.576 147.045 154.919 147.045L 154.919 161.045ZM 137.702 161.045L 154.919 161.045L 154.919 147.045L 137.702 147.045L 137.702 161.045ZM 120.702 144.045C 120.702 153.434 128.313 161.045 137.702 161.045L 137.702 147.045C 136.045 147.045 134.702 145.702 134.702 144.045L 120.702 144.045ZM 120.702 141.457L 120.702 144.045L 134.702 144.045L 134.702 141.457L 120.702 141.457ZM 104.986 150.399C 112.677 150.393 120.946 149.708 128.883 148.356L 126.52 134.557C 119.186 135.819 112.1 136.404 104.986 136.399L 104.986 150.399ZM 89.2097 149.194C 94.2322 149.966 99.6841 150.393 104.986 150.399L 104.986 136.399C 100.232 136.404 95.8508 136.06 91.3499 135.359L 89.2097 149.194ZM 97.2798 144.045L 97.2798 142.276L 83.2798 142.276L 83.2798 144.045L 97.2798 144.045ZM 80.2798 161.045C 89.6687 161.045 97.2798 153.434 97.2798 144.045L 83.2798 144.045C 83.2798 145.702 81.9367 147.045 80.2798 147.045L 80.2798 161.045ZM 63.0625 161.045L 80.2798 161.045L 80.2798 147.045L 63.0625 147.045L 63.0625 161.045ZM 46.0625 144.045C 46.0625 153.434 53.6736 161.045 63.0625 161.045L 63.0625 147.045C 61.4055 147.045 60.0625 145.702 60.0625 144.045L 46.0625 144.045ZM 46.0625 127.323L 46.0625 144.045L 60.0625 144.045L 60.0625 127.323L 46.0625 127.323ZM 20.4502 80.93C 20.4502 102.006 31.7815 120.507 48.9465 132.985L 57.1785 121.661C 42.8894 111.274 34.4502 96.6748 34.4502 80.93L 20.4502 80.93ZM 21.2799 71.1469C 20.7559 74.2467 20.4567 77.7092 20.4502 80.93L 34.4502 80.93C 34.4437 78.3133 34.6416 76.0317 35.0795 73.5069L 21.2799 71.1469ZM 28.023 65.3286C 27.8192 65.3333 27.6543 65.3351 27.4497 65.335L 27.4497 79.335C 27.7334 79.3349 28.0549 79.3313 28.3363 79.3251L 28.023 65.3286ZM -7 59.3487C -7 62.0076 -5.60129 64.0063 -5.16373 64.627C -4.5681 65.4537 -3.5845 66.5732 -2.68342 67.4443C -1.01672 69.0258 1.62689 71.059 4.46784 72.7596C 9.95049 75.9842 18.5879 79.2167 27.4497 79.335L 27.4497 65.335C 21.1514 65.4534 16.0639 63.3895 11.6118 60.7194C 9.48529 59.4726 8.109 58.4088 6.99766 57.3311C 6.50972 56.8724 6.14341 56.3501 6.27908 56.5609C 6.29542 56.5819 6.35439 56.678 6.3454 56.666C 6.32621 56.629 6.57229 57.1137 6.52939 57.0259C 6.6391 57.2706 7 58.1175 7 59.3487L -7 59.3487ZM 7.9016 53.2979C 6.02858 52.7648 4.13105 52.2374 2.69646 51.9949C 2.0769 51.8955 0.458028 51.6453 -1.29331 52.0842C -2.29477 52.3352 -3.85784 52.9391 -5.16288 54.4295C -6.55914 56.0241 -7 57.8733 -7 59.3487L 7 59.3487C 7 60.5686 6.62911 62.2142 5.36995 63.6523C 4.20201 64.9861 2.84314 65.4805 2.11014 65.6642C 0.895732 65.9686 0.0708059 65.7527 0.479323 65.8182C 0.993606 65.9007 1.9958 66.173 4.0691 66.7631L 7.9016 53.2979ZM 27.4497 56.6667C 19.7286 56.7339 12.9314 54.7294 7.90159 53.2979L 4.06911 66.7631C 9.09892 68.1947 17.7938 70.5995 27.4497 70.6667L 27.4497 56.6667ZM 30.0839 56.5909C 29.1808 56.6427 28.3676 56.6675 27.4497 56.6667L 27.4497 70.6667C 28.5796 70.6659 29.7889 70.6294 30.8761 70.5684L 30.0839 56.5909ZM 104.986 11.4615C 67.4188 11.4615 34.4469 31.7409 23.8898 61.2196L 37.0701 65.9398C 45.1781 43.2997 71.8546 25.4615 104.986 25.4615L 104.986 11.4615ZM 129.394 13.3476C 121.291 12.1168 112.864 11.4667 104.986 11.4615L 104.986 25.4615C 112.325 25.4563 119.696 26.0257 127.284 27.1876L 129.394 13.3476ZM 135.601 -2.30875L 122.605 16.2527L 134.073 24.2825L 147.069 5.721L 135.601 -2.30875Z"/>
<path id="path4_fill" d="M 30.4072 15.2036C 30.4072 23.6003 23.6003 30.4072 15.2036 30.4072C 6.80688 30.4072 0 23.6003 0 15.2036C 0 6.80688 6.80688 0 15.2036 0C 23.6003 0 30.4072 6.80688 30.4072 15.2036Z"/>
<path id="path5_stroke_2x" d="M 25.4072 15.2036C 25.4072 20.8389 20.8389 25.4072 15.2036 25.4072L 15.2036 35.4072C 26.3617 35.4072 35.4072 26.3617 35.4072 15.2036L 25.4072 15.2036ZM 15.2036 25.4072C 9.5683 25.4072 5 20.8389 5 15.2036L -5 15.2036C -5 26.3617 4.04545 35.4072 15.2036 35.4072L 15.2036 25.4072ZM 5 15.2036C 5 9.5683 9.5683 5 15.2036 5L 15.2036 -5C 4.04545 -5 -5 4.04545 -5 15.2036L 5 15.2036ZM 15.2036 5C 20.8389 5 25.4072 9.5683 25.4072 15.2036L 35.4072 15.2036C 35.4072 4.04545 26.3617 -5 15.2036 -5L 15.2036 5Z"/>
<path id="path6_stroke_2x" d="M 28.4072 15.2036C 28.4072 22.4957 22.4957 28.4072 15.2036 28.4072L 15.2036 32.4072C 24.7049 32.4072 32.4072 24.7049 32.4072 15.2036L 28.4072 15.2036ZM 15.2036 28.4072C 7.91144 28.4072 2 22.4957 2 15.2036L -2 15.2036C -2 24.7049 5.70231 32.4072 15.2036 32.4072L 15.2036 28.4072ZM 2 15.2036C 2 7.91144 7.91144 2 15.2036 2L 15.2036 -2C 5.70231 -2 -2 5.70231 -2 15.2036L 2 15.2036ZM 15.2036 2C 22.4957 2 28.4072 7.91144 28.4072 15.2036L 32.4072 15.2036C 32.4072 5.70231 24.7049 -2 15.2036 -2L 15.2036 2Z"/>
<path id="path7_fill" d="M 6.144 27.288C 4.24 27.208 2.536 26.816 1.032 26.112L 2.016 22.8C 2.656 23.136 3.344 23.392 4.08 23.568C 4.832 23.744 5.52 23.856 6.144 23.904L 6.144 20.544L 5.784 20.448C 4.232 20.016 3.04 19.368 2.208 18.504C 1.376 17.624 0.96 16.592 0.96 15.408C 0.96 14.096 1.416 13.024 2.328 12.192C 3.256 11.36 4.528 10.872 6.144 10.728L 6.144 8.448L 8.184 8.448L 8.184 10.728C 9.72 10.856 11.2 11.248 12.624 11.904L 11.376 15.12C 10.576 14.592 9.512 14.256 8.184 14.112L 8.184 17.328L 8.472 17.4C 9.976 17.784 11.136 18.408 11.952 19.272C 12.784 20.12 13.2 21.136 13.2 22.32C 13.2 23.712 12.76 24.832 11.88 25.68C 11.016 26.528 9.784 27.048 8.184 27.24L 8.184 29.04L 6.144 29.04L 6.144 27.288ZM 6.144 14.112C 5.312 14.288 4.896 14.712 4.896 15.384C 4.896 15.688 4.984 15.944 5.16 16.152C 5.336 16.344 5.664 16.536 6.144 16.728L 6.144 14.112ZM 8.184 23.76C 8.936 23.568 9.312 23.184 9.312 22.608C 9.312 22.272 9.232 22 9.072 21.792C 8.928 21.584 8.632 21.392 8.184 21.216L 8.184 23.76Z"/>
<path id="path8_fill" fill-rule="evenodd" d="M 135.683 1.70607C 137.449 -0.816264 141.284 -0.480937 142.585 2.30971L 153.92 26.6154C 153.982 26.7502 154.038 26.8859 154.084 27.0221L 154.096 27.0558C 154.132 27.1644 154.164 27.2733 154.19 27.3822C 154.206 27.4467 154.219 27.5112 154.231 27.5757L 154.237 27.5779C 169.1 33.5571 181.428 42.1325 187.663 53.0637L 194.564 53.0637C 197.325 53.0637 199.564 55.3023 199.564 58.0637L 199.564 74.4459C 199.564 77.2074 197.325 79.4459 194.564 79.4459L 191.268 79.4459L 191.267 79.4533C 188.042 99.5751 175.237 114.03 158.505 123.503L 158.505 137.9C 158.505 143.423 154.028 147.9 148.505 147.9L 132.735 147.9C 127.233 147.9 122.77 143.458 122.735 137.964L 122.735 137.9L 122.735 135.8L 122.729 135.801C 115.393 137.057 108.016 137.667 100.903 137.667C 96.6743 137.667 92.5278 137.383 88.4917 136.838C 87.915 136.76 87.3408 136.677 86.7686 136.588L 86.7686 137.9C 86.7686 143.423 82.2915 147.9 76.7686 147.9L 60.9985 147.9C 55.4971 147.9 51.0332 143.458 50.9985 137.964L 50.9985 137.9L 50.9985 122.217C 35.8828 111.229 26.3823 95.3222 26.3823 77.628C 26.3823 74.8227 26.6211 72.0624 27.083 69.3595C 27.0098 69.3611 26.9365 69.3625 26.8633 69.3636C 26.7046 69.3661 26.542 69.3673 26.3823 69.3673C 11.8115 69.3673 0 59.1866 0 56.886C 0 55.9039 2.15234 56.5166 5.75293 57.5413C 10.5869 58.9172 18.0312 61.036 26.3823 61.036C 27.3667 61.036 28.3384 61.0066 29.2944 60.9524C 38.2637 35.9066 66.9282 17.589 100.903 17.589C 108.215 17.589 115.807 18.1751 123.347 19.3248L 135.683 1.70607Z"/>
<path id="path9_stroke_2x" d="M 142.585 2.30971L 139.866 3.57754L 139.866 3.57766L 142.585 2.30971ZM 135.683 1.70607L 133.226 -0.0146239L 133.226 -0.0145743L 135.683 1.70607ZM 153.92 26.6154L 156.642 25.3537L 156.639 25.3474L 153.92 26.6154ZM 154.084 27.0221L 156.931 26.0749L 156.926 26.06L 156.921 26.0452L 154.084 27.0221ZM 154.096 27.0558L 151.249 28.003L 151.253 28.0141L 154.096 27.0558ZM 154.19 27.3822L 151.274 28.0883L 151.274 28.0884L 154.19 27.3822ZM 154.231 27.5757L 151.284 28.134L 151.587 29.7353L 153.096 30.3523L 154.231 27.5757ZM 154.237 27.5779L 153.101 30.3545L 153.109 30.3579L 153.117 30.3611L 154.237 27.5779ZM 187.663 53.0637L 185.057 54.5501L 185.92 56.0637L 187.663 56.0637L 187.663 53.0637ZM 191.268 79.4459L 191.268 76.4459L 188.638 76.4459L 188.293 79.0527L 191.268 79.4459ZM 191.267 79.4533L 194.229 79.928L 194.235 79.8874L 194.241 79.8466L 191.267 79.4533ZM 158.505 123.503L 157.027 120.892L 155.505 121.754L 155.505 123.503L 158.505 123.503ZM 122.735 137.964L 119.735 137.964L 119.735 137.974L 119.735 137.983L 122.735 137.964ZM 122.735 135.8L 125.735 135.8L 125.735 132.206L 122.198 132.849L 122.735 135.8ZM 122.729 135.801L 123.236 138.758L 123.251 138.756L 123.266 138.753L 122.729 135.801ZM 88.4917 136.838L 88.8933 133.865L 88.8932 133.865L 88.4917 136.838ZM 86.7686 136.588L 87.2271 133.624L 83.7686 133.089L 83.7686 136.588L 86.7686 136.588ZM 50.9985 137.964L 47.9985 137.964L 47.9985 137.974L 47.9986 137.983L 50.9985 137.964ZM 50.9985 122.217L 53.9985 122.217L 53.9985 120.689L 52.7625 119.79L 50.9985 122.217ZM 27.083 69.3595L 30.0401 69.8648L 30.653 66.2784L 27.0155 66.3602L 27.083 69.3595ZM 26.8633 69.3636L 26.8183 66.3639L 26.8171 66.364L 26.8633 69.3636ZM 5.75293 57.5413L 6.57418 54.6559L 6.57416 54.6559L 5.75293 57.5413ZM 29.2944 60.9524L 29.4642 63.9476L 31.4487 63.8351L 32.1188 61.9639L 29.2944 60.9524ZM 123.347 19.3248L 122.895 22.2906L 124.736 22.5713L 125.805 21.0455L 123.347 19.3248ZM 145.304 1.04188C 143.027 -3.84205 136.316 -4.42856 133.226 -0.0146239L 138.141 3.42677C 138.582 2.79603 139.541 2.88017 139.866 3.57754L 145.304 1.04188ZM 156.639 25.3474L 145.304 1.04176L 139.866 3.57766L 151.201 27.8833L 156.639 25.3474ZM 156.921 26.0452C 156.846 25.8323 156.734 25.5542 156.642 25.3537L 151.198 27.8771C 151.231 27.9462 151.229 27.9396 151.248 27.9989L 156.921 26.0452ZM 156.942 26.1087L 156.931 26.0749L 151.238 27.9692L 151.249 28.0029L 156.942 26.1087ZM 157.106 26.6762C 157.064 26.5064 156.996 26.2713 156.939 26.0975L 151.253 28.0141C 151.268 28.0576 151.263 28.0403 151.274 28.0883L 157.106 26.6762ZM 157.179 27.0174C 157.161 26.9211 157.131 26.7826 157.106 26.6761L 151.274 28.0884C 151.28 28.1109 151.278 28.1014 151.284 28.134L 157.179 27.0174ZM 155.373 24.8013L 155.367 24.7991L 153.096 30.3523L 153.101 30.3545L 155.373 24.8013ZM 190.269 51.5774C 183.554 39.8055 170.509 30.8903 155.356 24.7947L 153.117 30.3611C 167.691 36.224 179.301 44.4594 185.057 54.5501L 190.269 51.5774ZM 194.564 50.0637L 187.663 50.0637L 187.663 56.0637L 194.564 56.0637L 194.564 50.0637ZM 202.564 58.0637C 202.564 53.6453 198.982 50.0637 194.564 50.0637L 194.564 56.0637C 195.668 56.0637 196.564 56.9592 196.564 58.0637L 202.564 58.0637ZM 202.564 74.4459L 202.564 58.0637L 196.564 58.0637L 196.564 74.4459L 202.564 74.4459ZM 194.564 82.4459C 198.982 82.4459 202.564 78.8644 202.564 74.4459L 196.564 74.4459C 196.564 75.5505 195.668 76.4459 194.564 76.4459L 194.564 82.4459ZM 191.268 82.4459L 194.564 82.4459L 194.564 76.4459L 191.268 76.4459L 191.268 82.4459ZM 194.241 79.8466L 194.242 79.8392L 188.293 79.0527L 188.292 79.0601L 194.241 79.8466ZM 159.983 126.113C 177.286 116.317 190.824 101.175 194.229 79.928L 188.304 78.9786C 185.26 97.9748 173.187 111.743 157.027 120.892L 159.983 126.113ZM 161.505 137.9L 161.505 123.503L 155.505 123.503L 155.505 137.9L 161.505 137.9ZM 148.505 150.9C 155.685 150.9 161.505 145.08 161.505 137.9L 155.505 137.9C 155.505 141.766 152.371 144.9 148.505 144.9L 148.505 150.9ZM 132.735 150.9L 148.505 150.9L 148.505 144.9L 132.735 144.9L 132.735 150.9ZM 119.735 137.983C 119.78 145.125 125.583 150.9 132.735 150.9L 132.735 144.9C 128.884 144.9 125.759 141.79 125.735 137.946L 119.735 137.983ZM 119.735 137.9L 119.735 137.964L 125.735 137.964L 125.735 137.9L 119.735 137.9ZM 119.735 135.8L 119.735 137.9L 125.735 137.9L 125.735 135.8L 119.735 135.8ZM 123.266 138.753L 123.272 138.752L 122.198 132.849L 122.193 132.85L 123.266 138.753ZM 100.903 140.667C 108.139 140.664 115.77 140.034 123.236 138.758L 122.223 132.844C 115.016 134.081 107.892 134.669 100.903 134.667L 100.903 140.667ZM 88.0901 139.811C 92.2245 140.368 96.5719 140.665 100.903 140.667L 100.903 134.667C 96.7768 134.669 92.8312 134.399 88.8933 133.865L 88.0901 139.811ZM 86.3101 139.553C 86.8963 139.644 87.499 139.731 88.0902 139.811L 88.8932 133.865C 88.331 133.789 87.7853 133.71 87.2271 133.624L 86.3101 139.553ZM 89.7686 137.9L 89.7686 136.588L 83.7686 136.588L 83.7686 137.9L 89.7686 137.9ZM 76.7686 150.9C 83.9484 150.9 89.7686 145.08 89.7686 137.9L 83.7686 137.9C 83.7686 141.766 80.6347 144.9 76.7686 144.9L 76.7686 150.9ZM 60.9985 150.9L 76.7686 150.9L 76.7686 144.9L 60.9985 144.9L 60.9985 150.9ZM 47.9986 137.983C 48.0437 145.125 53.8467 150.9 60.9985 150.9L 60.9985 144.9C 57.1474 144.9 54.0227 141.79 53.9985 137.946L 47.9986 137.983ZM 47.9985 137.9L 47.9985 137.964L 53.9985 137.964L 53.9985 137.9L 47.9985 137.9ZM 47.9985 122.217L 47.9985 137.9L 53.9985 137.9L 53.9985 122.217L 47.9985 122.217ZM 23.3823 77.628C 23.3823 96.4645 33.5025 113.207 49.2346 124.643L 52.7625 119.79C 38.2631 109.25 29.3823 94.1798 29.3823 77.628L 23.3823 77.628ZM 24.1259 68.8541C 23.6455 71.6801 23.3851 74.6933 23.3823 77.628L 29.3823 77.628C 29.3795 74.9521 29.5966 72.4447 30.0401 69.8648L 24.1259 68.8541ZM 26.9083 72.3633C 26.9878 72.3621 27.0723 72.3605 27.1505 72.3587L 27.0155 66.3602C 26.9473 66.3618 26.8853 66.3629 26.8183 66.3639L 26.9083 72.3633ZM 26.8171 66.364C 26.6703 66.3662 26.5307 66.3673 26.3823 66.3673L 26.3823 72.3673C 26.5533 72.3672 26.7389 72.3659 26.9094 72.3633L 26.8171 66.364ZM -3 56.886C -3 58.1849 -2.2983 59.269 -1.91605 59.8113C -1.46606 60.4418 -0.757329 61.2465 -0.00129892 61.9739C 1.45271 63.3598 3.65605 65.0558 6.19628 66.5694C 11.1913 69.521 18.5476 72.3166 26.3823 72.3673L 26.3823 66.3673C 19.6462 66.418 13.8114 64.1232 9.25795 61.4093C 7.02394 60.0902 5.36373 58.8097 4.14774 57.6397C 3.56877 57.089 3.24089 56.721 2.98802 56.3544C 2.66741 55.8996 3 56.1623 3 56.886L -3 56.886ZM 6.57416 54.6559C 4.77387 54.1435 3.16371 53.6907 2.00135 53.499C 1.46205 53.4125 0.556885 53.2961 -0.336603 53.52C -0.837236 53.6454 -1.56152 53.9333 -2.15737 54.6137C -2.79236 55.3388 -3 56.1856 -3 56.886L 3 56.886C 3 57.3409 2.85962 57.992 2.35641 58.5667C 1.89232 59.0966 1.36432 59.2792 1.12173 59.34C 0.744323 59.4346 0.60228 59.3513 1.05114 59.4233C 1.81912 59.5464 3.0456 59.8899 4.9317 60.4268L 6.57416 54.6559ZM 26.3823 58.036C 18.4459 58.0648 11.4082 56.0318 6.57418 54.6559L 4.93168 60.4267C 9.76566 61.8026 17.6166 64.0072 26.3823 64.036L 26.3823 58.036ZM 29.1246 57.9572C 28.2081 58.0094 27.3213 58.0364 26.3823 58.036L 26.3823 64.036C 27.4121 64.0357 28.4687 64.0038 29.4642 63.9476L 29.1246 57.9572ZM 100.903 14.589C 65.9777 14.589 35.9641 33.4297 26.4701 59.941L 32.1188 61.9639C 40.5632 38.3835 67.8787 20.589 100.903 20.589L 100.903 14.589ZM 123.799 16.3591C 116.148 15.1946 108.331 14.5912 100.903 14.589L 100.903 20.589C 108.1 20.5868 115.465 21.1555 122.895 22.2906L 123.799 16.3591ZM 133.226 -0.0145743L 120.89 17.6042L 125.805 21.0455L 138.141 3.42672L 133.226 -0.0145743Z"/>
<path id="path10_fill" d="M 8.66024 4.33012C 8.66024 6.72158 6.72158 8.66024 4.33012 8.66024C 1.93866 8.66024 0 6.72158 0 4.33012C 0 1.93866 1.93866 0 4.33012 0C 6.72158 0 8.66024 1.93866 8.66024 4.33012Z"/>
<path id="path11_stroke" d="M 7.16024 4.33012C 7.16024 5.89315 5.89315 7.16024 4.33012 7.16024L 4.33012 10.1602C 7.55001 10.1602 10.1602 7.55001 10.1602 4.33012L 7.16024 4.33012ZM 4.33012 7.16024C 2.76709 7.16024 1.5 5.89315 1.5 4.33012L -1.5 4.33012C -1.5 7.55001 1.11023 10.1602 4.33012 10.1602L 4.33012 7.16024ZM 1.5 4.33012C 1.5 2.76709 2.76709 1.5 4.33012 1.5L 4.33012 -1.5C 1.11023 -1.5 -1.5 1.11023 -1.5 4.33012L 1.5 4.33012ZM 4.33012 1.5C 5.89315 1.5 7.16024 2.76709 7.16024 4.33012L 10.1602 4.33012C 10.1602 1.11023 7.55001 -1.5 4.33012 -1.5L 4.33012 1.5Z"/>
<path id="path12_fill" d="M 0 3.2457C 0 1.45315 1.45315 0 3.2457 0L 37.1323 0C 38.9249 0 40.378 1.45315 40.378 3.2457C 40.378 5.03825 38.9249 6.4914 37.1323 6.4914L 3.24569 6.4914C 1.45314 6.4914 0 5.03825 0 3.2457Z"/>
<path id="path13_stroke_2x" d="M 3.2457 2L 37.1323 2L 37.1323 -2L 3.2457 -2L 3.2457 2ZM 37.1323 4.4914L 3.24569 4.4914L 3.24569 8.4914L 37.1323 8.4914L 37.1323 4.4914ZM 3.24569 4.4914C 2.55772 4.4914 2 3.93368 2 3.2457L -2 3.2457C -2 6.14281 0.34857 8.4914 3.24569 8.4914L 3.24569 4.4914ZM 38.378 3.2457C 38.378 3.93368 37.8203 4.4914 37.1323 4.4914L 37.1323 8.4914C 40.0294 8.4914 42.378 6.14282 42.378 3.2457L 38.378 3.2457ZM 37.1323 2C 37.8203 2 38.378 2.55771 38.378 3.2457L 42.378 3.2457C 42.378 0.348583 40.0294 -2 37.1323 -2L 37.1323 2ZM 3.2457 -2C 0.348578 -2 -2 0.34858 -2 3.2457L 2 3.2457C 2 2.55772 2.55772 2 3.2457 2L 3.2457 -2Z"/>
</defs>
</svg>
