<svg width="249" height="239" viewBox="0 0 249 239" version="1.1" xmlns="http://www.w3.org/2000/svg" xmlns:xlink="http://www.w3.org/1999/xlink">
<title>Group 18</title>
<desc>Created using Figma</desc>
<g id="Canvas" transform="translate(-4827 -823)">
<g id="Group 18">
<g id="Rectangle 2.5">
<use xlink:href="#path0_fill" transform="translate(4832.66 828.447)" fill="#A4F5C6"/>
<mask id="mask0_outline_out">
<rect id="mask0_outline_inv" fill="white" x="-5" y="-5" width="248" height="238" transform="translate(4832.66 828.447)"/>
<use xlink:href="#path0_fill" fill="black" transform="translate(4832.66 828.447)"/>
</mask>
<g mask="url(#mask0_outline_out)">
<use xlink:href="#path1_stroke_2x" transform="translate(4832.66 828.447)" fill="#27AE60"/>
</g>
</g>
<g id="Group 13">
<g id="Rectangle 3.3">
<use xlink:href="#path2_fill" transform="translate(4886.47 859.229)" fill="#FFFFFF"/>
<mask id="mask1_outline_out">
<rect id="mask1_outline_inv" fill="white" x="-5" y="-5" width="135" height="154" transform="translate(4886.47 859.229)"/>
<use xlink:href="#path2_fill" fill="black" transform="translate(4886.47 859.229)"/>
</mask>
<g mask="url(#mask1_outline_out)">
<use xlink:href="#path3_stroke_2x" transform="translate(4886.47 859.229)" fill="#FFFFFF"/>
</g>
</g>
<g id="Rectangle 3.4">
<use xlink:href="#path4_fill" transform="translate(4890.47 885.648)" fill="#FFFFFF"/>
<mask id="mask2_outline_out">
<rect id="mask2_outline_inv" fill="white" x="-5" y="-5" width="138" height="158" transform="translate(4890.47 885.648)"/>
<use xlink:href="#path4_fill" fill="black" transform="translate(4890.47 885.648)"/>
</mask>
<g mask="url(#mask2_outline_out)">
<use xlink:href="#path5_stroke_2x" transform="translate(4890.47 885.648)" fill="#FFFFFF"/>
</g>
</g>
<g id="Ellipse">
<use xlink:href="#path6_fill" transform="translate(4957.38 961.901)" fill="#FFFFFF"/>
</g>
<g id="Rectangle 3.2">
<mask id="mask3_outline_out">
<rect id="mask3_outline_inv" fill="white" x="-5" y="-5" width="127" height="158" transform="translate(4877.47 866.785)"/>
<use xlink:href="#path7_fill" fill="black" transform="translate(4877.47 866.785)"/>
</mask>
<g mask="url(#mask3_outline_out)">
<use xlink:href="#path8_stroke_2x" transform="translate(4877.47 866.785)" fill="#FFFFFF"/>
</g>
</g>
<g id="Rectangle 3.1">
<use xlink:href="#path7_fill" transform="translate(4877.47 866.785)" fill="#8EFABC"/>
<mask id="mask4_outline_ins">
<use xlink:href="#path7_fill" fill="white" transform="translate(4877.47 866.785)"/>
</mask>
<g mask="url(#mask4_outline_ins)">
<use xlink:href="#path9_stroke_2x" transform="translate(4877.47 866.785)" fill="#219653"/>
</g>
</g>
<g id="Rectangle 3">
<use xlink:href="#path7_fill" transform="translate(4892.31 885.228)" fill="#FFFFFF"/>
<mask id="mask5_outline_ins">
<use xlink:href="#path7_fill" fill="white" transform="translate(4892.31 885.228)"/>
</mask>
<g mask="url(#mask5_outline_ins)">
<use xlink:href="#path9_stroke_2x" transform="translate(4892.31 885.228)" fill="#219653"/>
</g>
</g>
<g id="Rectangle 4">
<use xlink:href="#path10_fill" transform="translate(4906.66 907.262)" fill="#A4F5C6"/>
</g>
<g id="Rectangle 4.1">
<use xlink:href="#path10_fill" transform="translate(4906.66 927.921)" fill="#A4F5C6"/>
</g>
<g id="Rectangle 4.2">
<use xlink:href="#path10_fill" transform="translate(4906.66 948.58)" fill="#A4F5C6"/>
</g>
<g id="Rectangle 4.3">
<use xlink:href="#path10_fill" transform="translate(4906.66 969.239)" fill="#A4F5C6"/>
</g>
<g id="Group 12">
<g id="Union">
<use xlink:href="#path11_fill" transform="translate(4999.49 991.139)" fill="#CCFFE1"/>
<use xlink:href="#path12_stroke" transform="translate(4999.49 991.139)" fill="#219653"/>
</g>
<g id="Ellipse">
<mask id="mask6_outline_ins">
<use xlink:href="#path13_fill" fill="white" transform="matrix(0.5 0.866025 -0.866025 0.5 5031 969.374)"/>
</mask>
<g mask="url(#mask6_outline_ins)">
<use xlink:href="#path14_stroke_2x" transform="matrix(0.5 0.866025 -0.866025 0.5 5031 969.374)" fill="#0CB052"/>
</g>
</g>
<g id="Ellipse">
<mask id="mask7_outline_ins">
<use xlink:href="#path13_fill" fill="white" transform="matrix(1 1.11022e-16 -1.11022e-16 1 4992.51 967.562)"/>
</mask>
<g mask="url(#mask7_outline_ins)">
<use xlink:href="#path14_stroke_2x" transform="matrix(1 1.11022e-16 -1.11022e-16 1 4992.51 967.562)" fill="#39D47B"/>
</g>
</g>
<g id="Ellipse">
<mask id="mask8_outline_ins">
<use xlink:href="#path13_fill" fill="white" transform="matrix(-0.258819 0.965926 -0.965926 -0.258819 5047.83 993.589)"/>
</mask>
<g mask="url(#mask8_outline_ins)">
<use xlink:href="#path14_stroke_2x" transform="matrix(-0.258819 0.965926 -0.965926 -0.258819 5047.83 993.589)" fill="#69B88A"/>
</g>
</g>
</g>
</g>
</g>
</g>
<defs>
<path id="path0_fill" d="M 0 9.99999C 0 4.47715 4.47715 0 10 0L 227.556 0C 233.079 0 237.556 4.47715 237.556 10L 237.556 217.693C 237.556 223.216 233.079 227.693 227.556 227.693L 10 227.693C 4.47715 227.693 0 223.216 0 217.693L 0 9.99999Z"/>
<path id="path1_stroke_2x" d="M 10 5L 227.556 5L 227.556 -5L 10 -5L 10 5ZM 232.556 10L 232.556 217.693L 242.556 217.693L 242.556 10L 232.556 10ZM 227.556 222.693L 10 222.693L 10 232.693L 227.556 232.693L 227.556 222.693ZM 5 217.693L 5 9.99999L -5 9.99999L -5 217.693L 5 217.693ZM 10 222.693C 7.23858 222.693 5 220.454 5 217.693L -5 217.693C -5 225.977 1.71573 232.693 10 232.693L 10 222.693ZM 232.556 217.693C 232.556 220.454 230.318 222.693 227.556 222.693L 227.556 232.693C 235.84 232.693 242.556 225.977 242.556 217.693L 232.556 217.693ZM 227.556 5C 230.318 5 232.556 7.23858 232.556 10L 242.556 10C 242.556 1.71573 235.84 -5 227.556 -5L 227.556 5ZM 10 -5C 1.71573 -5 -5 1.71572 -5 9.99999L 5 9.99999C 5 7.23857 7.23857 5 10 5L 10 -5Z"/>
<path id="path2_fill" d="M 0 9.99999C 0 4.47714 4.47715 0 10 0L 114.206 0C 119.728 0 124.206 4.47715 124.206 10L 124.206 133.947C 124.206 139.47 119.728 143.947 114.206 143.947L 10 143.947C 4.47715 143.947 0 139.47 0 133.947L 0 9.99999Z"/>
<path id="path3_stroke_2x" d="M 10 5L 114.206 5L 114.206 -5L 10 -5L 10 5ZM 119.206 10L 119.206 133.947L 129.206 133.947L 129.206 10L 119.206 10ZM 114.206 138.947L 10 138.947L 10 148.947L 114.206 148.947L 114.206 138.947ZM 5 133.947L 5 9.99999L -5 9.99999L -5 133.947L 5 133.947ZM 10 138.947C 7.23858 138.947 5 136.709 5 133.947L -5 133.947C -5 142.231 1.71573 148.947 10 148.947L 10 138.947ZM 119.206 133.947C 119.206 136.709 116.967 138.947 114.206 138.947L 114.206 148.947C 122.49 148.947 129.206 142.231 129.206 133.947L 119.206 133.947ZM 114.206 5C 116.967 5 119.206 7.23858 119.206 10L 129.206 10C 129.206 1.71573 122.49 -5 114.206 -5L 114.206 5ZM 10 -5C 1.71574 -5 -5 1.71571 -5 9.99999L 5 9.99999C 5 7.23857 7.23857 5 10 5L 10 -5Z"/>
<path id="path4_fill" d="M 0 20C 0 8.95433 8.9543 0 20 0L 107.178 0C 118.223 0 127.178 8.95431 127.178 20L 127.178 127.392C 127.178 138.437 118.223 147.392 107.178 147.392L 20 147.392C 8.95432 147.392 0 138.437 0 127.392L 0 20Z"/>
<path id="path5_stroke_2x" d="M 20 5L 107.178 5L 107.178 -5L 20 -5L 20 5ZM 122.178 20L 122.178 127.392L 132.178 127.392L 132.178 20L 122.178 20ZM 107.178 142.392L 20 142.392L 20 152.392L 107.178 152.392L 107.178 142.392ZM 5 127.392L 5 20L -5 20L -5 127.392L 5 127.392ZM 20 142.392C 11.7157 142.392 5 135.676 5 127.392L -5 127.392C -5 141.199 6.1929 152.392 20 152.392L 20 142.392ZM 122.178 127.392C 122.178 135.676 115.462 142.392 107.178 142.392L 107.178 152.392C 120.985 152.392 132.178 141.199 132.178 127.392L 122.178 127.392ZM 107.178 5C 115.462 5 122.178 11.7157 122.178 20L 132.178 20C 132.178 6.19288 120.985 -5 107.178 -5L 107.178 5ZM 20 -5C 6.19287 -5 -5 6.19291 -5 20L 5 20C 5 11.7157 11.7157 5 20 5L 20 -5Z"/>
<path id="path6_fill" d="M 83.0536 41.5268C 83.0536 64.4614 64.4614 83.0536 41.5268 83.0536C 18.5922 83.0536 0 64.4614 0 41.5268C 0 18.5922 18.5922 0 41.5268 0C 64.4614 0 83.0536 18.5922 83.0536 41.5268Z"/>
<path id="path7_fill" d="M 0 20C 0 8.95433 8.9543 0 20 0L 96.362 0C 107.408 0 116.362 8.95431 116.362 20L 116.362 127.392C 116.362 138.437 107.408 147.392 96.362 147.392L 20 147.392C 8.9543 147.392 0 138.437 0 127.392L 0 20Z"/>
<path id="path8_stroke_2x" d="M 20 5L 96.362 5L 96.362 -5L 20 -5L 20 5ZM 111.362 20L 111.362 127.392L 121.362 127.392L 121.362 20L 111.362 20ZM 96.362 142.392L 20 142.392L 20 152.392L 96.362 152.392L 96.362 142.392ZM 5 127.392L 5 20L -5 20L -5 127.392L 5 127.392ZM 20 142.392C 11.7157 142.392 5 135.676 5 127.392L -5 127.392C -5 141.199 6.19287 152.392 20 152.392L 20 142.392ZM 111.362 127.392C 111.362 135.676 104.646 142.392 96.362 142.392L 96.362 152.392C 110.169 152.392 121.362 141.199 121.362 127.392L 111.362 127.392ZM 96.362 5C 104.646 5 111.362 11.7157 111.362 20L 121.362 20C 121.362 6.19289 110.169 -5 96.362 -5L 96.362 5ZM 20 -5C 6.19287 -5 -5 6.19291 -5 20L 5 20C 5 11.7157 11.7157 5 20 5L 20 -5Z"/>
<path id="path9_stroke_2x" d="M 20 3.5L 96.362 3.5L 96.362 -3.5L 20 -3.5L 20 3.5ZM 112.862 20L 112.862 127.392L 119.862 127.392L 119.862 20L 112.862 20ZM 96.362 143.892L 20 143.892L 20 150.892L 96.362 150.892L 96.362 143.892ZM 3.5 127.392L 3.5 20L -3.5 20L -3.5 127.392L 3.5 127.392ZM 20 143.892C 10.8873 143.892 3.5 136.504 3.5 127.392L -3.5 127.392C -3.5 140.37 7.0213 150.892 20 150.892L 20 143.892ZM 112.862 127.392C 112.862 136.504 105.475 143.892 96.362 143.892L 96.362 150.892C 109.341 150.892 119.862 140.37 119.862 127.392L 112.862 127.392ZM 96.362 3.5C 105.475 3.5 112.862 10.8873 112.862 20L 119.862 20C 119.862 7.02131 109.341 -3.5 96.362 -3.5L 96.362 3.5ZM 20 -3.5C 7.0213 -3.5 -3.5 7.02133 -3.5 20L 3.5 20C 3.5 10.8873 10.8873 3.5 20 3.5L 20 -3.5Z"/>
<path id="path10_fill" d="M 0 5C 0 2.23858 2.23858 0 5 0L 85.4965 0C 88.2579 0 90.4965 2.23858 90.4965 5L 90.4965 7.80979C 90.4965 10.5712 88.2579 12.8098 85.4965 12.8098L 4.99999 12.8098C 2.23857 12.8098 0 10.5712 0 7.80979L 0 5Z"/>
<path id="path11_fill" fill-rule="evenodd" d="M 5.38281 14.1194C 2.60938 10.9705 0 8.00756 0 4.69274C 0 -1.30946 8.55566 -1.42689 11.1475 3.61364C 13.7393 -1.42689 21.3218 -1.30946 21.3218 4.69274C 21.3218 8.06835 18.9238 11.079 16.3638 14.2927C 14.3716 16.7933 12.2817 19.4169 11.1475 22.4309C 9.98682 19.3472 7.63086 16.6722 5.38281 14.1194Z"/>
<path id="path12_stroke" d="M 5.38281 14.1194L 6.1333 13.4585L 6.13324 13.4584L 5.38281 14.1194ZM 11.1475 3.61364L 10.2581 4.07092L 11.1475 5.80048L 12.0368 4.07092L 11.1475 3.61364ZM 16.3638 14.2927L 17.1459 14.9158L 17.1459 14.9158L 16.3638 14.2927ZM 11.1475 22.4309L 10.2116 22.7832L 11.1475 25.2699L 12.0834 22.7831L 11.1475 22.4309ZM -1 4.69274C -1 6.6193 -0.240779 8.37982 0.811038 10.0103C 1.85279 11.6201 3.24566 13.2059 4.63238 14.7803L 6.13324 13.4584C 4.74653 11.884 3.44799 10.4138 2.4917 8.92619C 1.54547 7.45934 1 6.081 1 4.69274L -1 4.69274ZM 12.0368 3.15636C 10.5314 0.228712 7.33476 -1.15564 4.54119 -0.985992C 3.12994 -0.900289 1.74508 -0.415434 0.69973 0.54769C -0.363871 1.52763 -1 2.93458 -1 4.69274L 1 4.69274C 1 3.44981 1.43333 2.59126 2.05491 2.01857C 2.69473 1.42908 3.61079 1.07419 4.66242 1.01033C 6.79464 0.880845 9.17171 1.95804 10.2581 4.07092L 12.0368 3.15636ZM 12.0368 4.07092C 13.1484 1.90905 15.3138 0.886899 17.1393 1.00991C 18.0422 1.07074 18.8248 1.40711 19.378 1.9786C 19.9231 2.54183 20.3218 3.41228 20.3218 4.69274L 22.3218 4.69274C 22.3218 2.97211 21.7727 1.57705 20.8151 0.587666C 19.8655 -0.393464 18.5905 -0.896839 17.2738 -0.985568C 14.66 -1.16169 11.7383 0.277698 10.2581 3.15636L 12.0368 4.07092ZM 20.3218 4.69274C 20.3379 6.20191 19.8191 7.54788 18.939 9.04957C 18.0582 10.5648 16.8616 12.0628 15.5816 13.6696L 17.1459 14.9158C 18.426 13.3089 19.7084 11.6947 20.6666 10.0573C 21.6255 8.40633 22.3057 6.55918 22.3218 4.69274L 20.3218 4.69274ZM 15.5816 13.6696C 13.5894 16.1702 11.4121 18.9232 10.2115 22.0787L 12.0834 22.7831C 13.1514 19.9105 15.1537 17.4164 17.1459 14.9158L 15.5816 13.6696ZM 4.63232 14.7803C 6.90817 17.3647 9.12718 19.9021 10.2116 22.7832L 12.0834 22.0786C 10.8464 18.7923 8.35355 15.9798 6.1333 13.4585L 4.63232 14.7803Z"/>
<path id="path13_fill" d="M 35.3518 34.2388C 35.3518 53.1483 27.438 68.4776 17.6759 68.4776C 7.91377 68.4776 0 53.1483 0 34.2388C 0 15.3292 7.91377 0 17.6759 0C 27.438 0 35.3518 15.3292 35.3518 34.2388Z"/>
<path id="path14_stroke_2x" d="M 32.3518 34.2388C 32.3711 43.3536 30.5571 51.2193 27.5089 57.0731C 24.4926 62.9157 20.8588 65.4776 17.6759 65.4776L 17.6759 71.4776C 24.2551 71.4776 29.4592 66.3748 32.8404 59.8254C 36.1895 53.2872 38.3325 44.0335 38.3518 34.2388L 32.3518 34.2388ZM 17.6759 65.4776C 14.493 65.4776 10.8592 62.9157 7.84288 57.0731C 4.79465 51.2193 2.98067 43.3536 3 34.2388L -3 34.2388C -2.98067 44.0335 -0.837763 53.2872 2.51142 59.8254C 5.89255 66.3748 11.0967 71.4776 17.6759 71.4776L 17.6759 65.4776ZM 3 34.2388C 2.98067 25.124 4.79465 17.2582 7.84288 11.4045C 10.8592 5.56185 14.493 3 17.6759 3L 17.6759 -3C 11.0967 -3 5.89255 2.10276 2.51142 8.65211C -0.837763 15.1904 -2.98067 24.444 -3 34.2388L 3 34.2388ZM 17.6759 3C 20.8588 3 24.4926 5.56185 27.5089 11.4045C 30.5571 17.2582 32.3711 25.124 32.3518 34.2388L 38.3518 34.2388C 38.3325 24.444 36.1895 15.1904 32.8404 8.65211C 29.4592 2.10276 24.2551 -3 17.6759 -3L 17.6759 3Z"/>
</defs>
</svg>
